%TF.GenerationSoftware,KiCad,Pcbnew,(5.1.9)-1*%
%TF.CreationDate,2021-04-15T11:16:42+03:00*%
%TF.ProjectId,RGB-IR-ControllerPCB,5247422d-4952-42d4-936f-6e74726f6c6c,rev?*%
%TF.SameCoordinates,Original*%
%TF.FileFunction,Copper,L1,Top*%
%TF.FilePolarity,Positive*%
%FSLAX46Y46*%
G04 Gerber Fmt 4.6, Leading zero omitted, Abs format (unit mm)*
G04 Created by KiCad (PCBNEW (5.1.9)-1) date 2021-04-15 11:16:42*
%MOMM*%
%LPD*%
G01*
G04 APERTURE LIST*
%TA.AperFunction,ComponentPad*%
%ADD10O,3.960000X1.980000*%
%TD*%
%TA.AperFunction,ComponentPad*%
%ADD11R,3.960000X1.980000*%
%TD*%
%TA.AperFunction,ComponentPad*%
%ADD12O,1.600000X1.600000*%
%TD*%
%TA.AperFunction,ComponentPad*%
%ADD13C,1.600000*%
%TD*%
%TA.AperFunction,ComponentPad*%
%ADD14R,1.600000X1.600000*%
%TD*%
%TA.AperFunction,ComponentPad*%
%ADD15O,1.980000X3.960000*%
%TD*%
%TA.AperFunction,ComponentPad*%
%ADD16R,1.980000X3.960000*%
%TD*%
%TA.AperFunction,ComponentPad*%
%ADD17C,1.400000*%
%TD*%
%TA.AperFunction,SMDPad,CuDef*%
%ADD18R,5.800000X6.400000*%
%TD*%
%TA.AperFunction,SMDPad,CuDef*%
%ADD19R,1.200000X2.200000*%
%TD*%
%TA.AperFunction,Conductor*%
%ADD20C,1.500000*%
%TD*%
%TA.AperFunction,Conductor*%
%ADD21C,0.500000*%
%TD*%
%TA.AperFunction,Conductor*%
%ADD22C,1.000000*%
%TD*%
%TA.AperFunction,Conductor*%
%ADD23C,0.200000*%
%TD*%
%TA.AperFunction,Conductor*%
%ADD24C,0.100000*%
%TD*%
G04 APERTURE END LIST*
D10*
%TO.P,J1,2*%
%TO.N,GND*%
X107250000Y-52750000D03*
D11*
%TO.P,J1,1*%
%TO.N,+12V*%
X107250000Y-57750000D03*
%TD*%
D12*
%TO.P,R3,2*%
%TO.N,Net-(Q2-Pad1)*%
X130000000Y-57660000D03*
D13*
%TO.P,R3,1*%
%TO.N,RED_PIN*%
X130000000Y-47500000D03*
%TD*%
D12*
%TO.P,R6,2*%
%TO.N,Net-(Q3-Pad1)*%
X134000000Y-57660000D03*
D13*
%TO.P,R6,1*%
%TO.N,GND*%
X134000000Y-47500000D03*
%TD*%
D12*
%TO.P,R5,2*%
%TO.N,Net-(Q3-Pad1)*%
X138500000Y-57660000D03*
D13*
%TO.P,R5,1*%
%TO.N,BLUE_PIN*%
X138500000Y-47500000D03*
%TD*%
D12*
%TO.P,R4,2*%
%TO.N,Net-(Q2-Pad1)*%
X125500000Y-57660000D03*
D13*
%TO.P,R4,1*%
%TO.N,GND*%
X125500000Y-47500000D03*
%TD*%
D12*
%TO.P,R2,2*%
%TO.N,Net-(Q1-Pad1)*%
X117000000Y-57660000D03*
D13*
%TO.P,R2,1*%
%TO.N,GND*%
X117000000Y-47500000D03*
%TD*%
D12*
%TO.P,R1,2*%
%TO.N,Net-(Q1-Pad1)*%
X121500000Y-57660000D03*
D13*
%TO.P,R1,1*%
%TO.N,GREEN_PIN*%
X121500000Y-47500000D03*
%TD*%
D12*
%TO.P,A1,16*%
%TO.N,N/C*%
X100940000Y-26260000D03*
%TO.P,A1,15*%
X100940000Y-41500000D03*
%TO.P,A1,30*%
%TO.N,+12V*%
X136500000Y-26260000D03*
%TO.P,A1,14*%
%TO.N,GREEN_PIN*%
X103480000Y-41500000D03*
%TO.P,A1,29*%
%TO.N,GND*%
X133960000Y-26260000D03*
%TO.P,A1,13*%
%TO.N,RED_PIN*%
X106020000Y-41500000D03*
%TO.P,A1,28*%
%TO.N,N/C*%
X131420000Y-26260000D03*
%TO.P,A1,12*%
%TO.N,BLUE_PIN*%
X108560000Y-41500000D03*
%TO.P,A1,27*%
%TO.N,+5V*%
X128880000Y-26260000D03*
%TO.P,A1,11*%
%TO.N,N/C*%
X111100000Y-41500000D03*
%TO.P,A1,26*%
X126340000Y-26260000D03*
%TO.P,A1,10*%
X113640000Y-41500000D03*
%TO.P,A1,25*%
X123800000Y-26260000D03*
%TO.P,A1,9*%
X116180000Y-41500000D03*
%TO.P,A1,24*%
X121260000Y-26260000D03*
%TO.P,A1,8*%
X118720000Y-41500000D03*
%TO.P,A1,23*%
X118720000Y-26260000D03*
%TO.P,A1,7*%
X121260000Y-41500000D03*
%TO.P,A1,22*%
X116180000Y-26260000D03*
%TO.P,A1,6*%
X123800000Y-41500000D03*
%TO.P,A1,21*%
X113640000Y-26260000D03*
%TO.P,A1,5*%
%TO.N,IR_DATA_OUT*%
X126340000Y-41500000D03*
%TO.P,A1,20*%
%TO.N,N/C*%
X111100000Y-26260000D03*
%TO.P,A1,4*%
%TO.N,GND*%
X128880000Y-41500000D03*
%TO.P,A1,19*%
%TO.N,N/C*%
X108560000Y-26260000D03*
%TO.P,A1,3*%
X131420000Y-41500000D03*
%TO.P,A1,18*%
X106020000Y-26260000D03*
%TO.P,A1,2*%
X133960000Y-41500000D03*
%TO.P,A1,17*%
X103480000Y-26260000D03*
D14*
%TO.P,A1,1*%
X136500000Y-41500000D03*
%TD*%
D15*
%TO.P,J2,3*%
%TO.N,Net-(J2-Pad3)*%
X131750000Y-79500000D03*
%TO.P,J2,4*%
%TO.N,Net-(J2-Pad4)*%
X136750000Y-79500000D03*
%TO.P,J2,2*%
%TO.N,Net-(J2-Pad2)*%
X126750000Y-79500000D03*
D16*
%TO.P,J2,1*%
%TO.N,+12V*%
X121750000Y-79500000D03*
%TD*%
D17*
%TO.P,U1,3*%
%TO.N,IR_DATA_OUT*%
X98880000Y-78500000D03*
%TO.P,U1,2*%
%TO.N,+5V*%
X103960000Y-78500000D03*
%TO.P,U1,1*%
%TO.N,GND*%
%TA.AperFunction,ComponentPad*%
G36*
G01*
X107200000Y-78049200D02*
X107200000Y-78950800D01*
G75*
G02*
X106950800Y-79200000I-249200J0D01*
G01*
X106049200Y-79200000D01*
G75*
G02*
X105800000Y-78950800I0J249200D01*
G01*
X105800000Y-78049200D01*
G75*
G02*
X106049200Y-77800000I249200J0D01*
G01*
X106950800Y-77800000D01*
G75*
G02*
X107200000Y-78049200I0J-249200D01*
G01*
G37*
%TD.AperFunction*%
%TD*%
D18*
%TO.P,Q1,2*%
%TO.N,Net-(J2-Pad2)*%
X118960000Y-67425000D03*
D19*
%TO.P,Q1,3*%
%TO.N,GND*%
X116680000Y-61125000D03*
%TO.P,Q1,1*%
%TO.N,Net-(Q1-Pad1)*%
X121240000Y-61125000D03*
%TD*%
D18*
%TO.P,Q2,2*%
%TO.N,Net-(J2-Pad3)*%
X127475000Y-67425000D03*
D19*
%TO.P,Q2,3*%
%TO.N,GND*%
X125195000Y-61125000D03*
%TO.P,Q2,1*%
%TO.N,Net-(Q2-Pad1)*%
X129755000Y-61125000D03*
%TD*%
D18*
%TO.P,Q3,2*%
%TO.N,Net-(J2-Pad4)*%
X136000000Y-67425000D03*
D19*
%TO.P,Q3,3*%
%TO.N,GND*%
X133720000Y-61125000D03*
%TO.P,Q3,1*%
%TO.N,Net-(Q3-Pad1)*%
X138280000Y-61125000D03*
%TD*%
D20*
%TO.N,+12V*%
X121750000Y-79500000D02*
X117750000Y-79500000D01*
X107250000Y-69000000D02*
X107250000Y-57750000D01*
X117750000Y-79500000D02*
X107250000Y-69000000D01*
X107250000Y-57750000D02*
X110750000Y-57750000D01*
X110750000Y-57750000D02*
X115750000Y-52750000D01*
X115750000Y-52750000D02*
X139000000Y-52750000D01*
X141138700Y-50611300D02*
X141138700Y-28138700D01*
X139000000Y-52750000D02*
X141138700Y-50611300D01*
X139260000Y-26260000D02*
X136500000Y-26260000D01*
X141138700Y-28138700D02*
X139260000Y-26260000D01*
D21*
%TO.N,BLUE_PIN*%
X108560000Y-41500000D02*
X110560000Y-43500000D01*
X138500000Y-45000000D02*
X138500000Y-47500000D01*
X136000000Y-43500000D02*
X137000000Y-43500000D01*
X137000000Y-43500000D02*
X138500000Y-45000000D01*
X110560000Y-43500000D02*
X136000000Y-43500000D01*
%TO.N,GREEN_PIN*%
X103480000Y-41500000D02*
X103480000Y-43980000D01*
X103480000Y-43980000D02*
X105000000Y-45500000D01*
X121500000Y-46500000D02*
X121500000Y-47500000D01*
X121500000Y-46000000D02*
X121000000Y-45500000D01*
X121500000Y-47500000D02*
X121500000Y-46000000D01*
X105000000Y-45500000D02*
X121000000Y-45500000D01*
%TO.N,RED_PIN*%
X106020000Y-43020000D02*
X106020000Y-41500000D01*
X107500000Y-44500000D02*
X106020000Y-43020000D01*
X130000000Y-45500000D02*
X129000000Y-44500000D01*
X130000000Y-47500000D02*
X130000000Y-45500000D01*
X129000000Y-44500000D02*
X107500000Y-44500000D01*
%TO.N,+5V*%
X103960000Y-80540000D02*
X103960000Y-78500000D01*
X103000000Y-81500000D02*
X103960000Y-80540000D01*
X96500000Y-81500000D02*
X103000000Y-81500000D01*
X94500000Y-79500000D02*
X96500000Y-81500000D01*
X94500000Y-36500000D02*
X94500000Y-79500000D01*
X97500000Y-33500000D02*
X94500000Y-36500000D01*
X125000000Y-33500000D02*
X97500000Y-33500000D01*
X128880000Y-29620000D02*
X125000000Y-33500000D01*
X128880000Y-26260000D02*
X128880000Y-29620000D01*
%TO.N,IR_DATA_OUT*%
X98380000Y-78500000D02*
X98380000Y-39120000D01*
X98380000Y-39120000D02*
X99500000Y-38000000D01*
X99500000Y-38000000D02*
X125000000Y-38000000D01*
X126340000Y-39340000D02*
X126340000Y-41500000D01*
X125000000Y-38000000D02*
X126340000Y-39340000D01*
%TO.N,Net-(Q1-Pad1)*%
X117000000Y-57660000D02*
X121500000Y-57660000D01*
X121500000Y-60865000D02*
X121240000Y-61125000D01*
X121500000Y-57660000D02*
X121500000Y-60865000D01*
%TO.N,Net-(Q2-Pad1)*%
X129755000Y-57905000D02*
X130000000Y-57660000D01*
X125500000Y-57660000D02*
X130000000Y-57660000D01*
X130000000Y-60880000D02*
X129755000Y-61125000D01*
X130000000Y-57660000D02*
X130000000Y-60880000D01*
%TO.N,Net-(Q3-Pad1)*%
X134000000Y-57660000D02*
X138500000Y-57660000D01*
X138500000Y-60905000D02*
X138280000Y-61125000D01*
X138500000Y-57660000D02*
X138500000Y-60905000D01*
D20*
%TO.N,Net-(J2-Pad4)*%
X136750000Y-68175000D02*
X136000000Y-67425000D01*
X136750000Y-79500000D02*
X136750000Y-68175000D01*
%TO.N,Net-(J2-Pad3)*%
X131750000Y-79500000D02*
X131750000Y-76250000D01*
X127475000Y-71975000D02*
X127475000Y-67425000D01*
X131750000Y-76250000D02*
X127475000Y-71975000D01*
D22*
%TO.N,Net-(J2-Pad2)*%
X118960000Y-66805000D02*
X118960000Y-69705000D01*
D20*
X119175000Y-67640000D02*
X118960000Y-67425000D01*
X126750000Y-79500000D02*
X126750000Y-77750000D01*
X118960000Y-69960000D02*
X118960000Y-67425000D01*
X126750000Y-77750000D02*
X118960000Y-69960000D01*
%TD*%
D23*
%TO.N,GND*%
X142850001Y-82350000D02*
X103041749Y-82350000D01*
X103166629Y-82337700D01*
X103326855Y-82289097D01*
X103474519Y-82210168D01*
X103603948Y-82103948D01*
X103630566Y-82071514D01*
X104531520Y-81170560D01*
X104563948Y-81143948D01*
X104670168Y-81014519D01*
X104749097Y-80866855D01*
X104772461Y-80789832D01*
X104797700Y-80706630D01*
X104802066Y-80662300D01*
X104810000Y-80581749D01*
X104810000Y-80581742D01*
X104814111Y-80540001D01*
X104810000Y-80498260D01*
X104810000Y-79488478D01*
X104969776Y-79328702D01*
X105112045Y-79115781D01*
X105199236Y-78905284D01*
X105197097Y-79200000D01*
X105208682Y-79317621D01*
X105242990Y-79430721D01*
X105298704Y-79534955D01*
X105373683Y-79626317D01*
X105465045Y-79701296D01*
X105569279Y-79757010D01*
X105682379Y-79791318D01*
X105800000Y-79802903D01*
X106200000Y-79800000D01*
X106350000Y-79650000D01*
X106350000Y-78650000D01*
X106650000Y-78650000D01*
X106650000Y-79650000D01*
X106800000Y-79800000D01*
X107200000Y-79802903D01*
X107317621Y-79791318D01*
X107430721Y-79757010D01*
X107534955Y-79701296D01*
X107626317Y-79626317D01*
X107701296Y-79534955D01*
X107757010Y-79430721D01*
X107791318Y-79317621D01*
X107802903Y-79200000D01*
X107800000Y-78800000D01*
X107650000Y-78650000D01*
X106650000Y-78650000D01*
X106350000Y-78650000D01*
X106330000Y-78650000D01*
X106330000Y-78350000D01*
X106350000Y-78350000D01*
X106350000Y-77350000D01*
X106650000Y-77350000D01*
X106650000Y-78350000D01*
X107650000Y-78350000D01*
X107800000Y-78200000D01*
X107802903Y-77800000D01*
X107791318Y-77682379D01*
X107757010Y-77569279D01*
X107701296Y-77465045D01*
X107626317Y-77373683D01*
X107534955Y-77298704D01*
X107430721Y-77242990D01*
X107317621Y-77208682D01*
X107200000Y-77197097D01*
X106800000Y-77200000D01*
X106650000Y-77350000D01*
X106350000Y-77350000D01*
X106200000Y-77200000D01*
X105800000Y-77197097D01*
X105682379Y-77208682D01*
X105569279Y-77242990D01*
X105465045Y-77298704D01*
X105373683Y-77373683D01*
X105298704Y-77465045D01*
X105242990Y-77569279D01*
X105208682Y-77682379D01*
X105197097Y-77800000D01*
X105199236Y-78094716D01*
X105112045Y-77884219D01*
X104969776Y-77671298D01*
X104788702Y-77490224D01*
X104575781Y-77347955D01*
X104339196Y-77249958D01*
X104088039Y-77200000D01*
X103831961Y-77200000D01*
X103580804Y-77249958D01*
X103344219Y-77347955D01*
X103131298Y-77490224D01*
X102950224Y-77671298D01*
X102807955Y-77884219D01*
X102709958Y-78120804D01*
X102660000Y-78371961D01*
X102660000Y-78628039D01*
X102709958Y-78879196D01*
X102807955Y-79115781D01*
X102950224Y-79328702D01*
X103110001Y-79488479D01*
X103110000Y-80187919D01*
X102647920Y-80650000D01*
X96852081Y-80650000D01*
X95350000Y-79147920D01*
X95350000Y-39120000D01*
X97525889Y-39120000D01*
X97530001Y-39161751D01*
X97530000Y-78541748D01*
X97542300Y-78666628D01*
X97590903Y-78826854D01*
X97668098Y-78971274D01*
X97727955Y-79115781D01*
X97870224Y-79328702D01*
X98051298Y-79509776D01*
X98264219Y-79652045D01*
X98500804Y-79750042D01*
X98751961Y-79800000D01*
X99008039Y-79800000D01*
X99259196Y-79750042D01*
X99495781Y-79652045D01*
X99708702Y-79509776D01*
X99889776Y-79328702D01*
X100032045Y-79115781D01*
X100130042Y-78879196D01*
X100180000Y-78628039D01*
X100180000Y-78371961D01*
X100130042Y-78120804D01*
X100032045Y-77884219D01*
X99889776Y-77671298D01*
X99708702Y-77490224D01*
X99495781Y-77347955D01*
X99259196Y-77249958D01*
X99230000Y-77244151D01*
X99230000Y-53145775D01*
X104720044Y-53145775D01*
X104733629Y-53219885D01*
X104854628Y-53508636D01*
X105029634Y-53768234D01*
X105251923Y-53988701D01*
X105512952Y-54161566D01*
X105802689Y-54280185D01*
X106110000Y-54340000D01*
X107100000Y-54340000D01*
X107100000Y-52900000D01*
X107400000Y-52900000D01*
X107400000Y-54340000D01*
X108390000Y-54340000D01*
X108697311Y-54280185D01*
X108987048Y-54161566D01*
X109248077Y-53988701D01*
X109470366Y-53768234D01*
X109645372Y-53508636D01*
X109766371Y-53219885D01*
X109779956Y-53145775D01*
X109672166Y-52900000D01*
X107400000Y-52900000D01*
X107100000Y-52900000D01*
X104827834Y-52900000D01*
X104720044Y-53145775D01*
X99230000Y-53145775D01*
X99230000Y-52354225D01*
X104720044Y-52354225D01*
X104827834Y-52600000D01*
X107100000Y-52600000D01*
X107100000Y-51160000D01*
X107400000Y-51160000D01*
X107400000Y-52600000D01*
X109672166Y-52600000D01*
X109779956Y-52354225D01*
X109766371Y-52280115D01*
X109645372Y-51991364D01*
X109470366Y-51731766D01*
X109248077Y-51511299D01*
X108987048Y-51338434D01*
X108697311Y-51219815D01*
X108390000Y-51160000D01*
X107400000Y-51160000D01*
X107100000Y-51160000D01*
X106110000Y-51160000D01*
X105802689Y-51219815D01*
X105512952Y-51338434D01*
X105251923Y-51511299D01*
X105029634Y-51731766D01*
X104854628Y-51991364D01*
X104733629Y-52280115D01*
X104720044Y-52354225D01*
X99230000Y-52354225D01*
X99230000Y-48488387D01*
X116223745Y-48488387D01*
X116299186Y-48719784D01*
X116550620Y-48833068D01*
X116819324Y-48895124D01*
X117094971Y-48903565D01*
X117366968Y-48858069D01*
X117624862Y-48760382D01*
X117700814Y-48719784D01*
X117776255Y-48488387D01*
X117000000Y-47712132D01*
X116223745Y-48488387D01*
X99230000Y-48488387D01*
X99230000Y-47594971D01*
X115596435Y-47594971D01*
X115641931Y-47866968D01*
X115739618Y-48124862D01*
X115780216Y-48200814D01*
X116011613Y-48276255D01*
X116787868Y-47500000D01*
X117212132Y-47500000D01*
X117988387Y-48276255D01*
X118219784Y-48200814D01*
X118333068Y-47949380D01*
X118395124Y-47680676D01*
X118403565Y-47405029D01*
X118358069Y-47133032D01*
X118260382Y-46875138D01*
X118219784Y-46799186D01*
X117988387Y-46723745D01*
X117212132Y-47500000D01*
X116787868Y-47500000D01*
X116011613Y-46723745D01*
X115780216Y-46799186D01*
X115666932Y-47050620D01*
X115604876Y-47319324D01*
X115596435Y-47594971D01*
X99230000Y-47594971D01*
X99230000Y-39472080D01*
X99852081Y-38850000D01*
X124647920Y-38850000D01*
X125490000Y-39692081D01*
X125490000Y-40384186D01*
X125447552Y-40412549D01*
X125252549Y-40607552D01*
X125099336Y-40836851D01*
X125070000Y-40907674D01*
X125040664Y-40836851D01*
X124887451Y-40607552D01*
X124692448Y-40412549D01*
X124463149Y-40259336D01*
X124208365Y-40153801D01*
X123937888Y-40100000D01*
X123662112Y-40100000D01*
X123391635Y-40153801D01*
X123136851Y-40259336D01*
X122907552Y-40412549D01*
X122712549Y-40607552D01*
X122559336Y-40836851D01*
X122530000Y-40907674D01*
X122500664Y-40836851D01*
X122347451Y-40607552D01*
X122152448Y-40412549D01*
X121923149Y-40259336D01*
X121668365Y-40153801D01*
X121397888Y-40100000D01*
X121122112Y-40100000D01*
X120851635Y-40153801D01*
X120596851Y-40259336D01*
X120367552Y-40412549D01*
X120172549Y-40607552D01*
X120019336Y-40836851D01*
X119990000Y-40907674D01*
X119960664Y-40836851D01*
X119807451Y-40607552D01*
X119612448Y-40412549D01*
X119383149Y-40259336D01*
X119128365Y-40153801D01*
X118857888Y-40100000D01*
X118582112Y-40100000D01*
X118311635Y-40153801D01*
X118056851Y-40259336D01*
X117827552Y-40412549D01*
X117632549Y-40607552D01*
X117479336Y-40836851D01*
X117450000Y-40907674D01*
X117420664Y-40836851D01*
X117267451Y-40607552D01*
X117072448Y-40412549D01*
X116843149Y-40259336D01*
X116588365Y-40153801D01*
X116317888Y-40100000D01*
X116042112Y-40100000D01*
X115771635Y-40153801D01*
X115516851Y-40259336D01*
X115287552Y-40412549D01*
X115092549Y-40607552D01*
X114939336Y-40836851D01*
X114910000Y-40907674D01*
X114880664Y-40836851D01*
X114727451Y-40607552D01*
X114532448Y-40412549D01*
X114303149Y-40259336D01*
X114048365Y-40153801D01*
X113777888Y-40100000D01*
X113502112Y-40100000D01*
X113231635Y-40153801D01*
X112976851Y-40259336D01*
X112747552Y-40412549D01*
X112552549Y-40607552D01*
X112399336Y-40836851D01*
X112370000Y-40907674D01*
X112340664Y-40836851D01*
X112187451Y-40607552D01*
X111992448Y-40412549D01*
X111763149Y-40259336D01*
X111508365Y-40153801D01*
X111237888Y-40100000D01*
X110962112Y-40100000D01*
X110691635Y-40153801D01*
X110436851Y-40259336D01*
X110207552Y-40412549D01*
X110012549Y-40607552D01*
X109859336Y-40836851D01*
X109830000Y-40907674D01*
X109800664Y-40836851D01*
X109647451Y-40607552D01*
X109452448Y-40412549D01*
X109223149Y-40259336D01*
X108968365Y-40153801D01*
X108697888Y-40100000D01*
X108422112Y-40100000D01*
X108151635Y-40153801D01*
X107896851Y-40259336D01*
X107667552Y-40412549D01*
X107472549Y-40607552D01*
X107319336Y-40836851D01*
X107290000Y-40907674D01*
X107260664Y-40836851D01*
X107107451Y-40607552D01*
X106912448Y-40412549D01*
X106683149Y-40259336D01*
X106428365Y-40153801D01*
X106157888Y-40100000D01*
X105882112Y-40100000D01*
X105611635Y-40153801D01*
X105356851Y-40259336D01*
X105127552Y-40412549D01*
X104932549Y-40607552D01*
X104779336Y-40836851D01*
X104750000Y-40907674D01*
X104720664Y-40836851D01*
X104567451Y-40607552D01*
X104372448Y-40412549D01*
X104143149Y-40259336D01*
X103888365Y-40153801D01*
X103617888Y-40100000D01*
X103342112Y-40100000D01*
X103071635Y-40153801D01*
X102816851Y-40259336D01*
X102587552Y-40412549D01*
X102392549Y-40607552D01*
X102239336Y-40836851D01*
X102210000Y-40907674D01*
X102180664Y-40836851D01*
X102027451Y-40607552D01*
X101832448Y-40412549D01*
X101603149Y-40259336D01*
X101348365Y-40153801D01*
X101077888Y-40100000D01*
X100802112Y-40100000D01*
X100531635Y-40153801D01*
X100276851Y-40259336D01*
X100047552Y-40412549D01*
X99852549Y-40607552D01*
X99699336Y-40836851D01*
X99593801Y-41091635D01*
X99540000Y-41362112D01*
X99540000Y-41637888D01*
X99593801Y-41908365D01*
X99699336Y-42163149D01*
X99852549Y-42392448D01*
X100047552Y-42587451D01*
X100276851Y-42740664D01*
X100531635Y-42846199D01*
X100802112Y-42900000D01*
X101077888Y-42900000D01*
X101348365Y-42846199D01*
X101603149Y-42740664D01*
X101832448Y-42587451D01*
X102027451Y-42392448D01*
X102180664Y-42163149D01*
X102210000Y-42092326D01*
X102239336Y-42163149D01*
X102392549Y-42392448D01*
X102587552Y-42587451D01*
X102630000Y-42615814D01*
X102630001Y-43938249D01*
X102625889Y-43980000D01*
X102642300Y-44146629D01*
X102690903Y-44306854D01*
X102705077Y-44333371D01*
X102769833Y-44454519D01*
X102876053Y-44583948D01*
X102908481Y-44610561D01*
X104369443Y-46071525D01*
X104396052Y-46103948D01*
X104428475Y-46130557D01*
X104428480Y-46130562D01*
X104525481Y-46210168D01*
X104673145Y-46289097D01*
X104833371Y-46337700D01*
X104958251Y-46350000D01*
X104958259Y-46350000D01*
X105000000Y-46354111D01*
X105041741Y-46350000D01*
X116276435Y-46350000D01*
X116223745Y-46511613D01*
X117000000Y-47287868D01*
X117776255Y-46511613D01*
X117723565Y-46350000D01*
X120647920Y-46350000D01*
X120650001Y-46352081D01*
X120650001Y-46384186D01*
X120607552Y-46412549D01*
X120412549Y-46607552D01*
X120259336Y-46836851D01*
X120153801Y-47091635D01*
X120100000Y-47362112D01*
X120100000Y-47637888D01*
X120153801Y-47908365D01*
X120259336Y-48163149D01*
X120412549Y-48392448D01*
X120607552Y-48587451D01*
X120836851Y-48740664D01*
X121091635Y-48846199D01*
X121362112Y-48900000D01*
X121637888Y-48900000D01*
X121908365Y-48846199D01*
X122163149Y-48740664D01*
X122392448Y-48587451D01*
X122491512Y-48488387D01*
X124723745Y-48488387D01*
X124799186Y-48719784D01*
X125050620Y-48833068D01*
X125319324Y-48895124D01*
X125594971Y-48903565D01*
X125866968Y-48858069D01*
X126124862Y-48760382D01*
X126200814Y-48719784D01*
X126276255Y-48488387D01*
X125500000Y-47712132D01*
X124723745Y-48488387D01*
X122491512Y-48488387D01*
X122587451Y-48392448D01*
X122740664Y-48163149D01*
X122846199Y-47908365D01*
X122900000Y-47637888D01*
X122900000Y-47594971D01*
X124096435Y-47594971D01*
X124141931Y-47866968D01*
X124239618Y-48124862D01*
X124280216Y-48200814D01*
X124511613Y-48276255D01*
X125287868Y-47500000D01*
X125712132Y-47500000D01*
X126488387Y-48276255D01*
X126719784Y-48200814D01*
X126833068Y-47949380D01*
X126895124Y-47680676D01*
X126903565Y-47405029D01*
X126858069Y-47133032D01*
X126760382Y-46875138D01*
X126719784Y-46799186D01*
X126488387Y-46723745D01*
X125712132Y-47500000D01*
X125287868Y-47500000D01*
X124511613Y-46723745D01*
X124280216Y-46799186D01*
X124166932Y-47050620D01*
X124104876Y-47319324D01*
X124096435Y-47594971D01*
X122900000Y-47594971D01*
X122900000Y-47362112D01*
X122846199Y-47091635D01*
X122740664Y-46836851D01*
X122587451Y-46607552D01*
X122491512Y-46511613D01*
X124723745Y-46511613D01*
X125500000Y-47287868D01*
X126276255Y-46511613D01*
X126200814Y-46280216D01*
X125949380Y-46166932D01*
X125680676Y-46104876D01*
X125405029Y-46096435D01*
X125133032Y-46141931D01*
X124875138Y-46239618D01*
X124799186Y-46280216D01*
X124723745Y-46511613D01*
X122491512Y-46511613D01*
X122392448Y-46412549D01*
X122350000Y-46384186D01*
X122350000Y-46041741D01*
X122354111Y-46000000D01*
X122350000Y-45958259D01*
X122350000Y-45958251D01*
X122337700Y-45833371D01*
X122289097Y-45673145D01*
X122210168Y-45525481D01*
X122103948Y-45396052D01*
X122071514Y-45369434D01*
X122052080Y-45350000D01*
X128647919Y-45350000D01*
X129150001Y-45852082D01*
X129150001Y-46384186D01*
X129107552Y-46412549D01*
X128912549Y-46607552D01*
X128759336Y-46836851D01*
X128653801Y-47091635D01*
X128600000Y-47362112D01*
X128600000Y-47637888D01*
X128653801Y-47908365D01*
X128759336Y-48163149D01*
X128912549Y-48392448D01*
X129107552Y-48587451D01*
X129336851Y-48740664D01*
X129591635Y-48846199D01*
X129862112Y-48900000D01*
X130137888Y-48900000D01*
X130408365Y-48846199D01*
X130663149Y-48740664D01*
X130892448Y-48587451D01*
X130991512Y-48488387D01*
X133223745Y-48488387D01*
X133299186Y-48719784D01*
X133550620Y-48833068D01*
X133819324Y-48895124D01*
X134094971Y-48903565D01*
X134366968Y-48858069D01*
X134624862Y-48760382D01*
X134700814Y-48719784D01*
X134776255Y-48488387D01*
X134000000Y-47712132D01*
X133223745Y-48488387D01*
X130991512Y-48488387D01*
X131087451Y-48392448D01*
X131240664Y-48163149D01*
X131346199Y-47908365D01*
X131400000Y-47637888D01*
X131400000Y-47594971D01*
X132596435Y-47594971D01*
X132641931Y-47866968D01*
X132739618Y-48124862D01*
X132780216Y-48200814D01*
X133011613Y-48276255D01*
X133787868Y-47500000D01*
X134212132Y-47500000D01*
X134988387Y-48276255D01*
X135219784Y-48200814D01*
X135333068Y-47949380D01*
X135395124Y-47680676D01*
X135403565Y-47405029D01*
X135358069Y-47133032D01*
X135260382Y-46875138D01*
X135219784Y-46799186D01*
X134988387Y-46723745D01*
X134212132Y-47500000D01*
X133787868Y-47500000D01*
X133011613Y-46723745D01*
X132780216Y-46799186D01*
X132666932Y-47050620D01*
X132604876Y-47319324D01*
X132596435Y-47594971D01*
X131400000Y-47594971D01*
X131400000Y-47362112D01*
X131346199Y-47091635D01*
X131240664Y-46836851D01*
X131087451Y-46607552D01*
X130991512Y-46511613D01*
X133223745Y-46511613D01*
X134000000Y-47287868D01*
X134776255Y-46511613D01*
X134700814Y-46280216D01*
X134449380Y-46166932D01*
X134180676Y-46104876D01*
X133905029Y-46096435D01*
X133633032Y-46141931D01*
X133375138Y-46239618D01*
X133299186Y-46280216D01*
X133223745Y-46511613D01*
X130991512Y-46511613D01*
X130892448Y-46412549D01*
X130850000Y-46384186D01*
X130850000Y-45541741D01*
X130854111Y-45500000D01*
X130850000Y-45458259D01*
X130850000Y-45458251D01*
X130837700Y-45333371D01*
X130789097Y-45173145D01*
X130710168Y-45025481D01*
X130630562Y-44928480D01*
X130630557Y-44928475D01*
X130603948Y-44896052D01*
X130571525Y-44869443D01*
X130052081Y-44350000D01*
X136647920Y-44350000D01*
X137650000Y-45352082D01*
X137650001Y-46384186D01*
X137607552Y-46412549D01*
X137412549Y-46607552D01*
X137259336Y-46836851D01*
X137153801Y-47091635D01*
X137100000Y-47362112D01*
X137100000Y-47637888D01*
X137153801Y-47908365D01*
X137259336Y-48163149D01*
X137412549Y-48392448D01*
X137607552Y-48587451D01*
X137836851Y-48740664D01*
X138091635Y-48846199D01*
X138362112Y-48900000D01*
X138637888Y-48900000D01*
X138908365Y-48846199D01*
X139163149Y-48740664D01*
X139392448Y-48587451D01*
X139587451Y-48392448D01*
X139740664Y-48163149D01*
X139788700Y-48047180D01*
X139788700Y-50052112D01*
X138440812Y-51400000D01*
X115816319Y-51400000D01*
X115750000Y-51393468D01*
X115683681Y-51400000D01*
X115683679Y-51400000D01*
X115485354Y-51419533D01*
X115230878Y-51496728D01*
X115203618Y-51511299D01*
X114996350Y-51622085D01*
X114879813Y-51717725D01*
X114790787Y-51790787D01*
X114748510Y-51842302D01*
X110190812Y-56400000D01*
X109710742Y-56400000D01*
X109656317Y-56333683D01*
X109564955Y-56258704D01*
X109460721Y-56202990D01*
X109347621Y-56168682D01*
X109230000Y-56157097D01*
X105270000Y-56157097D01*
X105152379Y-56168682D01*
X105039279Y-56202990D01*
X104935045Y-56258704D01*
X104843683Y-56333683D01*
X104768704Y-56425045D01*
X104712990Y-56529279D01*
X104678682Y-56642379D01*
X104667097Y-56760000D01*
X104667097Y-58740000D01*
X104678682Y-58857621D01*
X104712990Y-58970721D01*
X104768704Y-59074955D01*
X104843683Y-59166317D01*
X104935045Y-59241296D01*
X105039279Y-59297010D01*
X105152379Y-59331318D01*
X105270000Y-59342903D01*
X105900001Y-59342903D01*
X105900000Y-68933681D01*
X105893468Y-69000000D01*
X105900000Y-69066319D01*
X105900000Y-69066320D01*
X105919533Y-69264645D01*
X105996728Y-69519121D01*
X106055081Y-69628292D01*
X106122085Y-69753649D01*
X106248510Y-69907698D01*
X106248513Y-69907701D01*
X106290787Y-69959212D01*
X106342299Y-70001487D01*
X116748509Y-80407697D01*
X116790787Y-80459213D01*
X116996351Y-80627915D01*
X117230878Y-80753272D01*
X117485354Y-80830467D01*
X117683679Y-80850000D01*
X117683688Y-80850000D01*
X117749999Y-80856531D01*
X117816310Y-80850000D01*
X120157097Y-80850000D01*
X120157097Y-81480000D01*
X120168682Y-81597621D01*
X120202990Y-81710721D01*
X120258704Y-81814955D01*
X120333683Y-81906317D01*
X120425045Y-81981296D01*
X120529279Y-82037010D01*
X120642379Y-82071318D01*
X120760000Y-82082903D01*
X122740000Y-82082903D01*
X122857621Y-82071318D01*
X122970721Y-82037010D01*
X123074955Y-81981296D01*
X123166317Y-81906317D01*
X123241296Y-81814955D01*
X123297010Y-81710721D01*
X123331318Y-81597621D01*
X123342903Y-81480000D01*
X123342903Y-77520000D01*
X123331318Y-77402379D01*
X123297010Y-77289279D01*
X123241296Y-77185045D01*
X123166317Y-77093683D01*
X123074955Y-77018704D01*
X122970721Y-76962990D01*
X122857621Y-76928682D01*
X122740000Y-76917097D01*
X120760000Y-76917097D01*
X120642379Y-76928682D01*
X120529279Y-76962990D01*
X120425045Y-77018704D01*
X120333683Y-77093683D01*
X120258704Y-77185045D01*
X120202990Y-77289279D01*
X120168682Y-77402379D01*
X120157097Y-77520000D01*
X120157097Y-78150000D01*
X118309188Y-78150000D01*
X108600000Y-68440812D01*
X108600000Y-64225000D01*
X115457097Y-64225000D01*
X115457097Y-70625000D01*
X115468682Y-70742621D01*
X115502990Y-70855721D01*
X115558704Y-70959955D01*
X115633683Y-71051317D01*
X115725045Y-71126296D01*
X115829279Y-71182010D01*
X115942379Y-71216318D01*
X116060000Y-71227903D01*
X118318715Y-71227903D01*
X125207703Y-78116891D01*
X125183006Y-78198307D01*
X125160000Y-78431892D01*
X125160001Y-80568109D01*
X125183007Y-80801694D01*
X125273925Y-81101411D01*
X125421568Y-81377631D01*
X125620261Y-81619740D01*
X125862370Y-81818433D01*
X126138590Y-81966076D01*
X126438307Y-82056994D01*
X126750000Y-82087693D01*
X127061694Y-82056994D01*
X127361411Y-81966076D01*
X127637631Y-81818433D01*
X127879740Y-81619740D01*
X128078433Y-81377631D01*
X128226076Y-81101411D01*
X128316994Y-80801694D01*
X128340000Y-80568109D01*
X128340000Y-78431891D01*
X128316994Y-78198306D01*
X128226076Y-77898589D01*
X128097469Y-77657983D01*
X128080467Y-77485354D01*
X128003272Y-77230878D01*
X128003272Y-77230877D01*
X127877915Y-76996350D01*
X127751490Y-76842302D01*
X127709213Y-76790787D01*
X127657697Y-76748509D01*
X122091032Y-71181844D01*
X122194955Y-71126296D01*
X122286317Y-71051317D01*
X122361296Y-70959955D01*
X122417010Y-70855721D01*
X122451318Y-70742621D01*
X122462903Y-70625000D01*
X122462903Y-64225000D01*
X123972097Y-64225000D01*
X123972097Y-70625000D01*
X123983682Y-70742621D01*
X124017990Y-70855721D01*
X124073704Y-70959955D01*
X124148683Y-71051317D01*
X124240045Y-71126296D01*
X124344279Y-71182010D01*
X124457379Y-71216318D01*
X124575000Y-71227903D01*
X126125000Y-71227903D01*
X126125000Y-71908681D01*
X126118468Y-71975000D01*
X126125000Y-72041319D01*
X126125000Y-72041320D01*
X126144533Y-72239645D01*
X126221728Y-72494121D01*
X126221729Y-72494122D01*
X126347085Y-72728649D01*
X126473510Y-72882698D01*
X126473513Y-72882701D01*
X126515787Y-72934212D01*
X126567299Y-72976487D01*
X130400001Y-76809190D01*
X130400001Y-77662718D01*
X130273924Y-77898590D01*
X130183006Y-78198307D01*
X130160000Y-78431892D01*
X130160001Y-80568109D01*
X130183007Y-80801694D01*
X130273925Y-81101411D01*
X130421568Y-81377631D01*
X130620261Y-81619740D01*
X130862370Y-81818433D01*
X131138590Y-81966076D01*
X131438307Y-82056994D01*
X131750000Y-82087693D01*
X132061694Y-82056994D01*
X132361411Y-81966076D01*
X132637631Y-81818433D01*
X132879740Y-81619740D01*
X133078433Y-81377631D01*
X133226076Y-81101411D01*
X133316994Y-80801694D01*
X133340000Y-80568109D01*
X133340000Y-78431891D01*
X133316994Y-78198306D01*
X133226076Y-77898589D01*
X133100000Y-77662718D01*
X133100000Y-76316319D01*
X133106532Y-76250000D01*
X133100000Y-76183679D01*
X133080467Y-75985354D01*
X133003272Y-75730878D01*
X132944919Y-75621707D01*
X132877915Y-75496350D01*
X132751490Y-75342301D01*
X132751487Y-75342298D01*
X132709213Y-75290787D01*
X132657702Y-75248513D01*
X128825000Y-71415812D01*
X128825000Y-71227903D01*
X130375000Y-71227903D01*
X130492621Y-71216318D01*
X130605721Y-71182010D01*
X130709955Y-71126296D01*
X130801317Y-71051317D01*
X130876296Y-70959955D01*
X130932010Y-70855721D01*
X130966318Y-70742621D01*
X130977903Y-70625000D01*
X130977903Y-64225000D01*
X132497097Y-64225000D01*
X132497097Y-70625000D01*
X132508682Y-70742621D01*
X132542990Y-70855721D01*
X132598704Y-70959955D01*
X132673683Y-71051317D01*
X132765045Y-71126296D01*
X132869279Y-71182010D01*
X132982379Y-71216318D01*
X133100000Y-71227903D01*
X135400001Y-71227903D01*
X135400000Y-77662719D01*
X135273924Y-77898590D01*
X135183006Y-78198307D01*
X135160000Y-78431892D01*
X135160001Y-80568109D01*
X135183007Y-80801694D01*
X135273925Y-81101411D01*
X135421568Y-81377631D01*
X135620261Y-81619740D01*
X135862370Y-81818433D01*
X136138590Y-81966076D01*
X136438307Y-82056994D01*
X136750000Y-82087693D01*
X137061694Y-82056994D01*
X137361411Y-81966076D01*
X137637631Y-81818433D01*
X137879740Y-81619740D01*
X138078433Y-81377631D01*
X138226076Y-81101411D01*
X138316994Y-80801694D01*
X138340000Y-80568109D01*
X138340000Y-78431891D01*
X138316994Y-78198306D01*
X138226076Y-77898589D01*
X138100000Y-77662718D01*
X138100000Y-71227903D01*
X138900000Y-71227903D01*
X139017621Y-71216318D01*
X139130721Y-71182010D01*
X139234955Y-71126296D01*
X139326317Y-71051317D01*
X139401296Y-70959955D01*
X139457010Y-70855721D01*
X139491318Y-70742621D01*
X139502903Y-70625000D01*
X139502903Y-64225000D01*
X139491318Y-64107379D01*
X139457010Y-63994279D01*
X139401296Y-63890045D01*
X139326317Y-63798683D01*
X139234955Y-63723704D01*
X139130721Y-63667990D01*
X139017621Y-63633682D01*
X138900000Y-63622097D01*
X133100000Y-63622097D01*
X132982379Y-63633682D01*
X132869279Y-63667990D01*
X132765045Y-63723704D01*
X132673683Y-63798683D01*
X132598704Y-63890045D01*
X132542990Y-63994279D01*
X132508682Y-64107379D01*
X132497097Y-64225000D01*
X130977903Y-64225000D01*
X130966318Y-64107379D01*
X130932010Y-63994279D01*
X130876296Y-63890045D01*
X130801317Y-63798683D01*
X130709955Y-63723704D01*
X130605721Y-63667990D01*
X130492621Y-63633682D01*
X130375000Y-63622097D01*
X124575000Y-63622097D01*
X124457379Y-63633682D01*
X124344279Y-63667990D01*
X124240045Y-63723704D01*
X124148683Y-63798683D01*
X124073704Y-63890045D01*
X124017990Y-63994279D01*
X123983682Y-64107379D01*
X123972097Y-64225000D01*
X122462903Y-64225000D01*
X122451318Y-64107379D01*
X122417010Y-63994279D01*
X122361296Y-63890045D01*
X122286317Y-63798683D01*
X122194955Y-63723704D01*
X122090721Y-63667990D01*
X121977621Y-63633682D01*
X121860000Y-63622097D01*
X116060000Y-63622097D01*
X115942379Y-63633682D01*
X115829279Y-63667990D01*
X115725045Y-63723704D01*
X115633683Y-63798683D01*
X115558704Y-63890045D01*
X115502990Y-63994279D01*
X115468682Y-64107379D01*
X115457097Y-64225000D01*
X108600000Y-64225000D01*
X108600000Y-62225000D01*
X115477097Y-62225000D01*
X115488682Y-62342621D01*
X115522990Y-62455721D01*
X115578704Y-62559955D01*
X115653683Y-62651317D01*
X115745045Y-62726296D01*
X115849279Y-62782010D01*
X115962379Y-62816318D01*
X116080000Y-62827903D01*
X116380000Y-62825000D01*
X116530000Y-62675000D01*
X116530000Y-61275000D01*
X116830000Y-61275000D01*
X116830000Y-62675000D01*
X116980000Y-62825000D01*
X117280000Y-62827903D01*
X117397621Y-62816318D01*
X117510721Y-62782010D01*
X117614955Y-62726296D01*
X117706317Y-62651317D01*
X117781296Y-62559955D01*
X117837010Y-62455721D01*
X117871318Y-62342621D01*
X117882903Y-62225000D01*
X117880000Y-61425000D01*
X117730000Y-61275000D01*
X116830000Y-61275000D01*
X116530000Y-61275000D01*
X115630000Y-61275000D01*
X115480000Y-61425000D01*
X115477097Y-62225000D01*
X108600000Y-62225000D01*
X108600000Y-60025000D01*
X115477097Y-60025000D01*
X115480000Y-60825000D01*
X115630000Y-60975000D01*
X116530000Y-60975000D01*
X116530000Y-59575000D01*
X116830000Y-59575000D01*
X116830000Y-60975000D01*
X117730000Y-60975000D01*
X117880000Y-60825000D01*
X117882903Y-60025000D01*
X117871318Y-59907379D01*
X117837010Y-59794279D01*
X117781296Y-59690045D01*
X117706317Y-59598683D01*
X117614955Y-59523704D01*
X117510721Y-59467990D01*
X117397621Y-59433682D01*
X117280000Y-59422097D01*
X116980000Y-59425000D01*
X116830000Y-59575000D01*
X116530000Y-59575000D01*
X116380000Y-59425000D01*
X116080000Y-59422097D01*
X115962379Y-59433682D01*
X115849279Y-59467990D01*
X115745045Y-59523704D01*
X115653683Y-59598683D01*
X115578704Y-59690045D01*
X115522990Y-59794279D01*
X115488682Y-59907379D01*
X115477097Y-60025000D01*
X108600000Y-60025000D01*
X108600000Y-59342903D01*
X109230000Y-59342903D01*
X109347621Y-59331318D01*
X109460721Y-59297010D01*
X109564955Y-59241296D01*
X109656317Y-59166317D01*
X109710742Y-59100000D01*
X110683681Y-59100000D01*
X110750000Y-59106532D01*
X110816319Y-59100000D01*
X110816321Y-59100000D01*
X111014646Y-59080467D01*
X111269122Y-59003272D01*
X111503649Y-58877915D01*
X111709213Y-58709213D01*
X111751491Y-58657697D01*
X112887076Y-57522112D01*
X115600000Y-57522112D01*
X115600000Y-57797888D01*
X115653801Y-58068365D01*
X115759336Y-58323149D01*
X115912549Y-58552448D01*
X116107552Y-58747451D01*
X116336851Y-58900664D01*
X116591635Y-59006199D01*
X116862112Y-59060000D01*
X117137888Y-59060000D01*
X117408365Y-59006199D01*
X117663149Y-58900664D01*
X117892448Y-58747451D01*
X118087451Y-58552448D01*
X118115814Y-58510000D01*
X120384186Y-58510000D01*
X120412549Y-58552448D01*
X120607552Y-58747451D01*
X120650000Y-58775814D01*
X120650001Y-59422097D01*
X120640000Y-59422097D01*
X120522379Y-59433682D01*
X120409279Y-59467990D01*
X120305045Y-59523704D01*
X120213683Y-59598683D01*
X120138704Y-59690045D01*
X120082990Y-59794279D01*
X120048682Y-59907379D01*
X120037097Y-60025000D01*
X120037097Y-62225000D01*
X120048682Y-62342621D01*
X120082990Y-62455721D01*
X120138704Y-62559955D01*
X120213683Y-62651317D01*
X120305045Y-62726296D01*
X120409279Y-62782010D01*
X120522379Y-62816318D01*
X120640000Y-62827903D01*
X121840000Y-62827903D01*
X121957621Y-62816318D01*
X122070721Y-62782010D01*
X122174955Y-62726296D01*
X122266317Y-62651317D01*
X122341296Y-62559955D01*
X122397010Y-62455721D01*
X122431318Y-62342621D01*
X122442903Y-62225000D01*
X123992097Y-62225000D01*
X124003682Y-62342621D01*
X124037990Y-62455721D01*
X124093704Y-62559955D01*
X124168683Y-62651317D01*
X124260045Y-62726296D01*
X124364279Y-62782010D01*
X124477379Y-62816318D01*
X124595000Y-62827903D01*
X124895000Y-62825000D01*
X125045000Y-62675000D01*
X125045000Y-61275000D01*
X125345000Y-61275000D01*
X125345000Y-62675000D01*
X125495000Y-62825000D01*
X125795000Y-62827903D01*
X125912621Y-62816318D01*
X126025721Y-62782010D01*
X126129955Y-62726296D01*
X126221317Y-62651317D01*
X126296296Y-62559955D01*
X126352010Y-62455721D01*
X126386318Y-62342621D01*
X126397903Y-62225000D01*
X126395000Y-61425000D01*
X126245000Y-61275000D01*
X125345000Y-61275000D01*
X125045000Y-61275000D01*
X124145000Y-61275000D01*
X123995000Y-61425000D01*
X123992097Y-62225000D01*
X122442903Y-62225000D01*
X122442903Y-60025000D01*
X123992097Y-60025000D01*
X123995000Y-60825000D01*
X124145000Y-60975000D01*
X125045000Y-60975000D01*
X125045000Y-59575000D01*
X125345000Y-59575000D01*
X125345000Y-60975000D01*
X126245000Y-60975000D01*
X126395000Y-60825000D01*
X126397903Y-60025000D01*
X126386318Y-59907379D01*
X126352010Y-59794279D01*
X126296296Y-59690045D01*
X126221317Y-59598683D01*
X126129955Y-59523704D01*
X126025721Y-59467990D01*
X125912621Y-59433682D01*
X125795000Y-59422097D01*
X125495000Y-59425000D01*
X125345000Y-59575000D01*
X125045000Y-59575000D01*
X124895000Y-59425000D01*
X124595000Y-59422097D01*
X124477379Y-59433682D01*
X124364279Y-59467990D01*
X124260045Y-59523704D01*
X124168683Y-59598683D01*
X124093704Y-59690045D01*
X124037990Y-59794279D01*
X124003682Y-59907379D01*
X123992097Y-60025000D01*
X122442903Y-60025000D01*
X122431318Y-59907379D01*
X122397010Y-59794279D01*
X122350000Y-59706329D01*
X122350000Y-58775814D01*
X122392448Y-58747451D01*
X122587451Y-58552448D01*
X122740664Y-58323149D01*
X122846199Y-58068365D01*
X122900000Y-57797888D01*
X122900000Y-57522112D01*
X124100000Y-57522112D01*
X124100000Y-57797888D01*
X124153801Y-58068365D01*
X124259336Y-58323149D01*
X124412549Y-58552448D01*
X124607552Y-58747451D01*
X124836851Y-58900664D01*
X125091635Y-59006199D01*
X125362112Y-59060000D01*
X125637888Y-59060000D01*
X125908365Y-59006199D01*
X126163149Y-58900664D01*
X126392448Y-58747451D01*
X126587451Y-58552448D01*
X126615814Y-58510000D01*
X128884186Y-58510000D01*
X128912549Y-58552448D01*
X129107552Y-58747451D01*
X129150000Y-58775814D01*
X129150001Y-59422589D01*
X129037379Y-59433682D01*
X128924279Y-59467990D01*
X128820045Y-59523704D01*
X128728683Y-59598683D01*
X128653704Y-59690045D01*
X128597990Y-59794279D01*
X128563682Y-59907379D01*
X128552097Y-60025000D01*
X128552097Y-62225000D01*
X128563682Y-62342621D01*
X128597990Y-62455721D01*
X128653704Y-62559955D01*
X128728683Y-62651317D01*
X128820045Y-62726296D01*
X128924279Y-62782010D01*
X129037379Y-62816318D01*
X129155000Y-62827903D01*
X130355000Y-62827903D01*
X130472621Y-62816318D01*
X130585721Y-62782010D01*
X130689955Y-62726296D01*
X130781317Y-62651317D01*
X130856296Y-62559955D01*
X130912010Y-62455721D01*
X130946318Y-62342621D01*
X130957903Y-62225000D01*
X132517097Y-62225000D01*
X132528682Y-62342621D01*
X132562990Y-62455721D01*
X132618704Y-62559955D01*
X132693683Y-62651317D01*
X132785045Y-62726296D01*
X132889279Y-62782010D01*
X133002379Y-62816318D01*
X133120000Y-62827903D01*
X133420000Y-62825000D01*
X133570000Y-62675000D01*
X133570000Y-61275000D01*
X133870000Y-61275000D01*
X133870000Y-62675000D01*
X134020000Y-62825000D01*
X134320000Y-62827903D01*
X134437621Y-62816318D01*
X134550721Y-62782010D01*
X134654955Y-62726296D01*
X134746317Y-62651317D01*
X134821296Y-62559955D01*
X134877010Y-62455721D01*
X134911318Y-62342621D01*
X134922903Y-62225000D01*
X134920000Y-61425000D01*
X134770000Y-61275000D01*
X133870000Y-61275000D01*
X133570000Y-61275000D01*
X132670000Y-61275000D01*
X132520000Y-61425000D01*
X132517097Y-62225000D01*
X130957903Y-62225000D01*
X130957903Y-60025000D01*
X132517097Y-60025000D01*
X132520000Y-60825000D01*
X132670000Y-60975000D01*
X133570000Y-60975000D01*
X133570000Y-59575000D01*
X133870000Y-59575000D01*
X133870000Y-60975000D01*
X134770000Y-60975000D01*
X134920000Y-60825000D01*
X134922903Y-60025000D01*
X134911318Y-59907379D01*
X134877010Y-59794279D01*
X134821296Y-59690045D01*
X134746317Y-59598683D01*
X134654955Y-59523704D01*
X134550721Y-59467990D01*
X134437621Y-59433682D01*
X134320000Y-59422097D01*
X134020000Y-59425000D01*
X133870000Y-59575000D01*
X133570000Y-59575000D01*
X133420000Y-59425000D01*
X133120000Y-59422097D01*
X133002379Y-59433682D01*
X132889279Y-59467990D01*
X132785045Y-59523704D01*
X132693683Y-59598683D01*
X132618704Y-59690045D01*
X132562990Y-59794279D01*
X132528682Y-59907379D01*
X132517097Y-60025000D01*
X130957903Y-60025000D01*
X130946318Y-59907379D01*
X130912010Y-59794279D01*
X130856296Y-59690045D01*
X130850000Y-59682373D01*
X130850000Y-58775814D01*
X130892448Y-58747451D01*
X131087451Y-58552448D01*
X131240664Y-58323149D01*
X131346199Y-58068365D01*
X131400000Y-57797888D01*
X131400000Y-57522112D01*
X132600000Y-57522112D01*
X132600000Y-57797888D01*
X132653801Y-58068365D01*
X132759336Y-58323149D01*
X132912549Y-58552448D01*
X133107552Y-58747451D01*
X133336851Y-58900664D01*
X133591635Y-59006199D01*
X133862112Y-59060000D01*
X134137888Y-59060000D01*
X134408365Y-59006199D01*
X134663149Y-58900664D01*
X134892448Y-58747451D01*
X135087451Y-58552448D01*
X135115814Y-58510000D01*
X137384186Y-58510000D01*
X137412549Y-58552448D01*
X137607552Y-58747451D01*
X137650000Y-58775814D01*
X137650001Y-59425052D01*
X137562379Y-59433682D01*
X137449279Y-59467990D01*
X137345045Y-59523704D01*
X137253683Y-59598683D01*
X137178704Y-59690045D01*
X137122990Y-59794279D01*
X137088682Y-59907379D01*
X137077097Y-60025000D01*
X137077097Y-62225000D01*
X137088682Y-62342621D01*
X137122990Y-62455721D01*
X137178704Y-62559955D01*
X137253683Y-62651317D01*
X137345045Y-62726296D01*
X137449279Y-62782010D01*
X137562379Y-62816318D01*
X137680000Y-62827903D01*
X138880000Y-62827903D01*
X138997621Y-62816318D01*
X139110721Y-62782010D01*
X139214955Y-62726296D01*
X139306317Y-62651317D01*
X139381296Y-62559955D01*
X139437010Y-62455721D01*
X139471318Y-62342621D01*
X139482903Y-62225000D01*
X139482903Y-60025000D01*
X139471318Y-59907379D01*
X139437010Y-59794279D01*
X139381296Y-59690045D01*
X139350000Y-59651911D01*
X139350000Y-58775814D01*
X139392448Y-58747451D01*
X139587451Y-58552448D01*
X139740664Y-58323149D01*
X139846199Y-58068365D01*
X139900000Y-57797888D01*
X139900000Y-57522112D01*
X139846199Y-57251635D01*
X139740664Y-56996851D01*
X139587451Y-56767552D01*
X139392448Y-56572549D01*
X139163149Y-56419336D01*
X138908365Y-56313801D01*
X138637888Y-56260000D01*
X138362112Y-56260000D01*
X138091635Y-56313801D01*
X137836851Y-56419336D01*
X137607552Y-56572549D01*
X137412549Y-56767552D01*
X137384186Y-56810000D01*
X135115814Y-56810000D01*
X135087451Y-56767552D01*
X134892448Y-56572549D01*
X134663149Y-56419336D01*
X134408365Y-56313801D01*
X134137888Y-56260000D01*
X133862112Y-56260000D01*
X133591635Y-56313801D01*
X133336851Y-56419336D01*
X133107552Y-56572549D01*
X132912549Y-56767552D01*
X132759336Y-56996851D01*
X132653801Y-57251635D01*
X132600000Y-57522112D01*
X131400000Y-57522112D01*
X131346199Y-57251635D01*
X131240664Y-56996851D01*
X131087451Y-56767552D01*
X130892448Y-56572549D01*
X130663149Y-56419336D01*
X130408365Y-56313801D01*
X130137888Y-56260000D01*
X129862112Y-56260000D01*
X129591635Y-56313801D01*
X129336851Y-56419336D01*
X129107552Y-56572549D01*
X128912549Y-56767552D01*
X128884186Y-56810000D01*
X126615814Y-56810000D01*
X126587451Y-56767552D01*
X126392448Y-56572549D01*
X126163149Y-56419336D01*
X125908365Y-56313801D01*
X125637888Y-56260000D01*
X125362112Y-56260000D01*
X125091635Y-56313801D01*
X124836851Y-56419336D01*
X124607552Y-56572549D01*
X124412549Y-56767552D01*
X124259336Y-56996851D01*
X124153801Y-57251635D01*
X124100000Y-57522112D01*
X122900000Y-57522112D01*
X122846199Y-57251635D01*
X122740664Y-56996851D01*
X122587451Y-56767552D01*
X122392448Y-56572549D01*
X122163149Y-56419336D01*
X121908365Y-56313801D01*
X121637888Y-56260000D01*
X121362112Y-56260000D01*
X121091635Y-56313801D01*
X120836851Y-56419336D01*
X120607552Y-56572549D01*
X120412549Y-56767552D01*
X120384186Y-56810000D01*
X118115814Y-56810000D01*
X118087451Y-56767552D01*
X117892448Y-56572549D01*
X117663149Y-56419336D01*
X117408365Y-56313801D01*
X117137888Y-56260000D01*
X116862112Y-56260000D01*
X116591635Y-56313801D01*
X116336851Y-56419336D01*
X116107552Y-56572549D01*
X115912549Y-56767552D01*
X115759336Y-56996851D01*
X115653801Y-57251635D01*
X115600000Y-57522112D01*
X112887076Y-57522112D01*
X116309188Y-54100000D01*
X138933681Y-54100000D01*
X139000000Y-54106532D01*
X139066319Y-54100000D01*
X139066321Y-54100000D01*
X139264646Y-54080467D01*
X139519122Y-54003272D01*
X139753649Y-53877915D01*
X139959213Y-53709213D01*
X140001491Y-53657697D01*
X142046401Y-51612787D01*
X142097912Y-51570513D01*
X142158466Y-51496729D01*
X142266615Y-51364949D01*
X142391972Y-51130423D01*
X142409939Y-51071195D01*
X142469167Y-50875946D01*
X142488700Y-50677621D01*
X142488700Y-50677619D01*
X142495232Y-50611300D01*
X142488700Y-50544981D01*
X142488700Y-28205018D01*
X142495232Y-28138699D01*
X142488700Y-28072379D01*
X142469167Y-27874054D01*
X142391972Y-27619578D01*
X142268146Y-27387915D01*
X142266615Y-27385050D01*
X142140190Y-27231001D01*
X142140187Y-27230998D01*
X142097913Y-27179487D01*
X142046402Y-27137213D01*
X140261491Y-25352303D01*
X140219213Y-25300787D01*
X140013649Y-25132085D01*
X139944898Y-25095337D01*
X140267803Y-25031107D01*
X140746844Y-24832682D01*
X141177970Y-24544613D01*
X141544613Y-24177970D01*
X141832682Y-23746844D01*
X142031107Y-23267803D01*
X142132264Y-22759255D01*
X142132264Y-22240745D01*
X142031107Y-21732197D01*
X141832682Y-21253156D01*
X141544613Y-20822030D01*
X141177970Y-20455387D01*
X140746844Y-20167318D01*
X140267803Y-19968893D01*
X139759255Y-19867736D01*
X139240745Y-19867736D01*
X138732197Y-19968893D01*
X138253156Y-20167318D01*
X137822030Y-20455387D01*
X137455387Y-20822030D01*
X137167318Y-21253156D01*
X136968893Y-21732197D01*
X136867736Y-22240745D01*
X136867736Y-22759255D01*
X136968893Y-23267803D01*
X137167318Y-23746844D01*
X137455387Y-24177970D01*
X137822030Y-24544613D01*
X138253156Y-24832682D01*
X138439818Y-24910000D01*
X136889256Y-24910000D01*
X136637888Y-24860000D01*
X136362112Y-24860000D01*
X136091635Y-24913801D01*
X135836851Y-25019336D01*
X135607552Y-25172549D01*
X135412549Y-25367552D01*
X135259336Y-25596851D01*
X135227622Y-25673414D01*
X135213995Y-25637494D01*
X135068455Y-25404813D01*
X134880318Y-25204996D01*
X134656813Y-25045722D01*
X134406530Y-24933113D01*
X134325901Y-24908661D01*
X134110000Y-25019033D01*
X134110000Y-26110000D01*
X134130000Y-26110000D01*
X134130000Y-26410000D01*
X134110000Y-26410000D01*
X134110000Y-27500967D01*
X134325901Y-27611339D01*
X134406530Y-27586887D01*
X134656813Y-27474278D01*
X134880318Y-27315004D01*
X135068455Y-27115187D01*
X135213995Y-26882506D01*
X135227622Y-26846586D01*
X135259336Y-26923149D01*
X135412549Y-27152448D01*
X135607552Y-27347451D01*
X135836851Y-27500664D01*
X136091635Y-27606199D01*
X136362112Y-27660000D01*
X136637888Y-27660000D01*
X136889256Y-27610000D01*
X138700812Y-27610000D01*
X139788701Y-28697890D01*
X139788700Y-46952821D01*
X139740664Y-46836851D01*
X139587451Y-46607552D01*
X139392448Y-46412549D01*
X139350000Y-46384186D01*
X139350000Y-45041737D01*
X139354111Y-44999999D01*
X139350000Y-44958261D01*
X139350000Y-44958251D01*
X139337700Y-44833371D01*
X139289097Y-44673145D01*
X139210168Y-44525481D01*
X139151930Y-44454518D01*
X139130561Y-44428479D01*
X139130557Y-44428475D01*
X139103948Y-44396052D01*
X139071526Y-44369444D01*
X137630566Y-42928486D01*
X137603948Y-42896052D01*
X137546257Y-42848706D01*
X137634955Y-42801296D01*
X137726317Y-42726317D01*
X137801296Y-42634955D01*
X137857010Y-42530721D01*
X137891318Y-42417621D01*
X137902903Y-42300000D01*
X137902903Y-40700000D01*
X137891318Y-40582379D01*
X137857010Y-40469279D01*
X137801296Y-40365045D01*
X137726317Y-40273683D01*
X137634955Y-40198704D01*
X137530721Y-40142990D01*
X137417621Y-40108682D01*
X137300000Y-40097097D01*
X135700000Y-40097097D01*
X135582379Y-40108682D01*
X135469279Y-40142990D01*
X135365045Y-40198704D01*
X135273683Y-40273683D01*
X135198704Y-40365045D01*
X135142990Y-40469279D01*
X135108682Y-40582379D01*
X135098655Y-40684184D01*
X135047451Y-40607552D01*
X134852448Y-40412549D01*
X134623149Y-40259336D01*
X134368365Y-40153801D01*
X134097888Y-40100000D01*
X133822112Y-40100000D01*
X133551635Y-40153801D01*
X133296851Y-40259336D01*
X133067552Y-40412549D01*
X132872549Y-40607552D01*
X132719336Y-40836851D01*
X132690000Y-40907674D01*
X132660664Y-40836851D01*
X132507451Y-40607552D01*
X132312448Y-40412549D01*
X132083149Y-40259336D01*
X131828365Y-40153801D01*
X131557888Y-40100000D01*
X131282112Y-40100000D01*
X131011635Y-40153801D01*
X130756851Y-40259336D01*
X130527552Y-40412549D01*
X130332549Y-40607552D01*
X130179336Y-40836851D01*
X130147622Y-40913414D01*
X130133995Y-40877494D01*
X129988455Y-40644813D01*
X129800318Y-40444996D01*
X129576813Y-40285722D01*
X129326530Y-40173113D01*
X129245901Y-40148661D01*
X129030000Y-40259033D01*
X129030000Y-41350000D01*
X129050000Y-41350000D01*
X129050000Y-41650000D01*
X129030000Y-41650000D01*
X129030000Y-41670000D01*
X128730000Y-41670000D01*
X128730000Y-41650000D01*
X128710000Y-41650000D01*
X128710000Y-41350000D01*
X128730000Y-41350000D01*
X128730000Y-40259033D01*
X128514099Y-40148661D01*
X128433470Y-40173113D01*
X128183187Y-40285722D01*
X127959682Y-40444996D01*
X127771545Y-40644813D01*
X127626005Y-40877494D01*
X127612378Y-40913414D01*
X127580664Y-40836851D01*
X127427451Y-40607552D01*
X127232448Y-40412549D01*
X127190000Y-40384186D01*
X127190000Y-39381740D01*
X127194111Y-39339999D01*
X127190000Y-39298258D01*
X127190000Y-39298251D01*
X127177700Y-39173371D01*
X127161511Y-39120000D01*
X127129097Y-39013145D01*
X127050168Y-38865481D01*
X126943948Y-38736052D01*
X126911521Y-38709440D01*
X125630566Y-37428486D01*
X125603948Y-37396052D01*
X125474519Y-37289832D01*
X125326855Y-37210903D01*
X125166629Y-37162300D01*
X125041749Y-37150000D01*
X125041741Y-37150000D01*
X125000000Y-37145889D01*
X124958259Y-37150000D01*
X99541740Y-37150000D01*
X99499999Y-37145889D01*
X99458258Y-37150000D01*
X99458251Y-37150000D01*
X99349013Y-37160759D01*
X99333370Y-37162300D01*
X99175571Y-37210167D01*
X99173145Y-37210903D01*
X99025481Y-37289832D01*
X98896052Y-37396052D01*
X98869438Y-37428481D01*
X97808481Y-38489439D01*
X97776053Y-38516052D01*
X97669833Y-38645481D01*
X97635257Y-38710168D01*
X97590903Y-38793146D01*
X97542300Y-38953371D01*
X97525889Y-39120000D01*
X95350000Y-39120000D01*
X95350000Y-36852080D01*
X97852081Y-34350000D01*
X124958259Y-34350000D01*
X125000000Y-34354111D01*
X125041741Y-34350000D01*
X125041749Y-34350000D01*
X125166629Y-34337700D01*
X125326855Y-34289097D01*
X125474519Y-34210168D01*
X125603948Y-34103948D01*
X125630566Y-34071514D01*
X129451525Y-30250557D01*
X129483948Y-30223948D01*
X129510557Y-30191525D01*
X129510562Y-30191520D01*
X129590168Y-30094519D01*
X129669097Y-29946855D01*
X129717700Y-29786629D01*
X129730000Y-29661749D01*
X129730000Y-29661741D01*
X129734111Y-29620000D01*
X129730000Y-29578259D01*
X129730000Y-27375814D01*
X129772448Y-27347451D01*
X129967451Y-27152448D01*
X130120664Y-26923149D01*
X130150000Y-26852326D01*
X130179336Y-26923149D01*
X130332549Y-27152448D01*
X130527552Y-27347451D01*
X130756851Y-27500664D01*
X131011635Y-27606199D01*
X131282112Y-27660000D01*
X131557888Y-27660000D01*
X131828365Y-27606199D01*
X132083149Y-27500664D01*
X132312448Y-27347451D01*
X132507451Y-27152448D01*
X132660664Y-26923149D01*
X132692378Y-26846586D01*
X132706005Y-26882506D01*
X132851545Y-27115187D01*
X133039682Y-27315004D01*
X133263187Y-27474278D01*
X133513470Y-27586887D01*
X133594099Y-27611339D01*
X133810000Y-27500967D01*
X133810000Y-26410000D01*
X133790000Y-26410000D01*
X133790000Y-26110000D01*
X133810000Y-26110000D01*
X133810000Y-25019033D01*
X133594099Y-24908661D01*
X133513470Y-24933113D01*
X133263187Y-25045722D01*
X133039682Y-25204996D01*
X132851545Y-25404813D01*
X132706005Y-25637494D01*
X132692378Y-25673414D01*
X132660664Y-25596851D01*
X132507451Y-25367552D01*
X132312448Y-25172549D01*
X132083149Y-25019336D01*
X131828365Y-24913801D01*
X131557888Y-24860000D01*
X131282112Y-24860000D01*
X131011635Y-24913801D01*
X130756851Y-25019336D01*
X130527552Y-25172549D01*
X130332549Y-25367552D01*
X130179336Y-25596851D01*
X130150000Y-25667674D01*
X130120664Y-25596851D01*
X129967451Y-25367552D01*
X129772448Y-25172549D01*
X129543149Y-25019336D01*
X129288365Y-24913801D01*
X129017888Y-24860000D01*
X128742112Y-24860000D01*
X128471635Y-24913801D01*
X128216851Y-25019336D01*
X127987552Y-25172549D01*
X127792549Y-25367552D01*
X127639336Y-25596851D01*
X127610000Y-25667674D01*
X127580664Y-25596851D01*
X127427451Y-25367552D01*
X127232448Y-25172549D01*
X127003149Y-25019336D01*
X126748365Y-24913801D01*
X126477888Y-24860000D01*
X126202112Y-24860000D01*
X125931635Y-24913801D01*
X125676851Y-25019336D01*
X125447552Y-25172549D01*
X125252549Y-25367552D01*
X125099336Y-25596851D01*
X125070000Y-25667674D01*
X125040664Y-25596851D01*
X124887451Y-25367552D01*
X124692448Y-25172549D01*
X124463149Y-25019336D01*
X124208365Y-24913801D01*
X123937888Y-24860000D01*
X123662112Y-24860000D01*
X123391635Y-24913801D01*
X123136851Y-25019336D01*
X122907552Y-25172549D01*
X122712549Y-25367552D01*
X122559336Y-25596851D01*
X122530000Y-25667674D01*
X122500664Y-25596851D01*
X122347451Y-25367552D01*
X122152448Y-25172549D01*
X121923149Y-25019336D01*
X121668365Y-24913801D01*
X121397888Y-24860000D01*
X121122112Y-24860000D01*
X120851635Y-24913801D01*
X120596851Y-25019336D01*
X120367552Y-25172549D01*
X120172549Y-25367552D01*
X120019336Y-25596851D01*
X119990000Y-25667674D01*
X119960664Y-25596851D01*
X119807451Y-25367552D01*
X119612448Y-25172549D01*
X119383149Y-25019336D01*
X119128365Y-24913801D01*
X118857888Y-24860000D01*
X118582112Y-24860000D01*
X118311635Y-24913801D01*
X118056851Y-25019336D01*
X117827552Y-25172549D01*
X117632549Y-25367552D01*
X117479336Y-25596851D01*
X117450000Y-25667674D01*
X117420664Y-25596851D01*
X117267451Y-25367552D01*
X117072448Y-25172549D01*
X116843149Y-25019336D01*
X116588365Y-24913801D01*
X116317888Y-24860000D01*
X116042112Y-24860000D01*
X115771635Y-24913801D01*
X115516851Y-25019336D01*
X115287552Y-25172549D01*
X115092549Y-25367552D01*
X114939336Y-25596851D01*
X114910000Y-25667674D01*
X114880664Y-25596851D01*
X114727451Y-25367552D01*
X114532448Y-25172549D01*
X114303149Y-25019336D01*
X114048365Y-24913801D01*
X113777888Y-24860000D01*
X113502112Y-24860000D01*
X113231635Y-24913801D01*
X112976851Y-25019336D01*
X112747552Y-25172549D01*
X112552549Y-25367552D01*
X112399336Y-25596851D01*
X112370000Y-25667674D01*
X112340664Y-25596851D01*
X112187451Y-25367552D01*
X111992448Y-25172549D01*
X111763149Y-25019336D01*
X111508365Y-24913801D01*
X111237888Y-24860000D01*
X110962112Y-24860000D01*
X110691635Y-24913801D01*
X110436851Y-25019336D01*
X110207552Y-25172549D01*
X110012549Y-25367552D01*
X109859336Y-25596851D01*
X109830000Y-25667674D01*
X109800664Y-25596851D01*
X109647451Y-25367552D01*
X109452448Y-25172549D01*
X109223149Y-25019336D01*
X108968365Y-24913801D01*
X108697888Y-24860000D01*
X108422112Y-24860000D01*
X108151635Y-24913801D01*
X107896851Y-25019336D01*
X107667552Y-25172549D01*
X107472549Y-25367552D01*
X107319336Y-25596851D01*
X107290000Y-25667674D01*
X107260664Y-25596851D01*
X107107451Y-25367552D01*
X106912448Y-25172549D01*
X106683149Y-25019336D01*
X106428365Y-24913801D01*
X106157888Y-24860000D01*
X105882112Y-24860000D01*
X105611635Y-24913801D01*
X105356851Y-25019336D01*
X105127552Y-25172549D01*
X104932549Y-25367552D01*
X104779336Y-25596851D01*
X104750000Y-25667674D01*
X104720664Y-25596851D01*
X104567451Y-25367552D01*
X104372448Y-25172549D01*
X104143149Y-25019336D01*
X103888365Y-24913801D01*
X103617888Y-24860000D01*
X103342112Y-24860000D01*
X103071635Y-24913801D01*
X102816851Y-25019336D01*
X102587552Y-25172549D01*
X102392549Y-25367552D01*
X102239336Y-25596851D01*
X102210000Y-25667674D01*
X102180664Y-25596851D01*
X102027451Y-25367552D01*
X101832448Y-25172549D01*
X101603149Y-25019336D01*
X101348365Y-24913801D01*
X101077888Y-24860000D01*
X100802112Y-24860000D01*
X100531635Y-24913801D01*
X100276851Y-25019336D01*
X100047552Y-25172549D01*
X99852549Y-25367552D01*
X99699336Y-25596851D01*
X99593801Y-25851635D01*
X99540000Y-26122112D01*
X99540000Y-26397888D01*
X99593801Y-26668365D01*
X99699336Y-26923149D01*
X99852549Y-27152448D01*
X100047552Y-27347451D01*
X100276851Y-27500664D01*
X100531635Y-27606199D01*
X100802112Y-27660000D01*
X101077888Y-27660000D01*
X101348365Y-27606199D01*
X101603149Y-27500664D01*
X101832448Y-27347451D01*
X102027451Y-27152448D01*
X102180664Y-26923149D01*
X102210000Y-26852326D01*
X102239336Y-26923149D01*
X102392549Y-27152448D01*
X102587552Y-27347451D01*
X102816851Y-27500664D01*
X103071635Y-27606199D01*
X103342112Y-27660000D01*
X103617888Y-27660000D01*
X103888365Y-27606199D01*
X104143149Y-27500664D01*
X104372448Y-27347451D01*
X104567451Y-27152448D01*
X104720664Y-26923149D01*
X104750000Y-26852326D01*
X104779336Y-26923149D01*
X104932549Y-27152448D01*
X105127552Y-27347451D01*
X105356851Y-27500664D01*
X105611635Y-27606199D01*
X105882112Y-27660000D01*
X106157888Y-27660000D01*
X106428365Y-27606199D01*
X106683149Y-27500664D01*
X106912448Y-27347451D01*
X107107451Y-27152448D01*
X107260664Y-26923149D01*
X107290000Y-26852326D01*
X107319336Y-26923149D01*
X107472549Y-27152448D01*
X107667552Y-27347451D01*
X107896851Y-27500664D01*
X108151635Y-27606199D01*
X108422112Y-27660000D01*
X108697888Y-27660000D01*
X108968365Y-27606199D01*
X109223149Y-27500664D01*
X109452448Y-27347451D01*
X109647451Y-27152448D01*
X109800664Y-26923149D01*
X109830000Y-26852326D01*
X109859336Y-26923149D01*
X110012549Y-27152448D01*
X110207552Y-27347451D01*
X110436851Y-27500664D01*
X110691635Y-27606199D01*
X110962112Y-27660000D01*
X111237888Y-27660000D01*
X111508365Y-27606199D01*
X111763149Y-27500664D01*
X111992448Y-27347451D01*
X112187451Y-27152448D01*
X112340664Y-26923149D01*
X112370000Y-26852326D01*
X112399336Y-26923149D01*
X112552549Y-27152448D01*
X112747552Y-27347451D01*
X112976851Y-27500664D01*
X113231635Y-27606199D01*
X113502112Y-27660000D01*
X113777888Y-27660000D01*
X114048365Y-27606199D01*
X114303149Y-27500664D01*
X114532448Y-27347451D01*
X114727451Y-27152448D01*
X114880664Y-26923149D01*
X114910000Y-26852326D01*
X114939336Y-26923149D01*
X115092549Y-27152448D01*
X115287552Y-27347451D01*
X115516851Y-27500664D01*
X115771635Y-27606199D01*
X116042112Y-27660000D01*
X116317888Y-27660000D01*
X116588365Y-27606199D01*
X116843149Y-27500664D01*
X117072448Y-27347451D01*
X117267451Y-27152448D01*
X117420664Y-26923149D01*
X117450000Y-26852326D01*
X117479336Y-26923149D01*
X117632549Y-27152448D01*
X117827552Y-27347451D01*
X118056851Y-27500664D01*
X118311635Y-27606199D01*
X118582112Y-27660000D01*
X118857888Y-27660000D01*
X119128365Y-27606199D01*
X119383149Y-27500664D01*
X119612448Y-27347451D01*
X119807451Y-27152448D01*
X119960664Y-26923149D01*
X119990000Y-26852326D01*
X120019336Y-26923149D01*
X120172549Y-27152448D01*
X120367552Y-27347451D01*
X120596851Y-27500664D01*
X120851635Y-27606199D01*
X121122112Y-27660000D01*
X121397888Y-27660000D01*
X121668365Y-27606199D01*
X121923149Y-27500664D01*
X122152448Y-27347451D01*
X122347451Y-27152448D01*
X122500664Y-26923149D01*
X122530000Y-26852326D01*
X122559336Y-26923149D01*
X122712549Y-27152448D01*
X122907552Y-27347451D01*
X123136851Y-27500664D01*
X123391635Y-27606199D01*
X123662112Y-27660000D01*
X123937888Y-27660000D01*
X124208365Y-27606199D01*
X124463149Y-27500664D01*
X124692448Y-27347451D01*
X124887451Y-27152448D01*
X125040664Y-26923149D01*
X125070000Y-26852326D01*
X125099336Y-26923149D01*
X125252549Y-27152448D01*
X125447552Y-27347451D01*
X125676851Y-27500664D01*
X125931635Y-27606199D01*
X126202112Y-27660000D01*
X126477888Y-27660000D01*
X126748365Y-27606199D01*
X127003149Y-27500664D01*
X127232448Y-27347451D01*
X127427451Y-27152448D01*
X127580664Y-26923149D01*
X127610000Y-26852326D01*
X127639336Y-26923149D01*
X127792549Y-27152448D01*
X127987552Y-27347451D01*
X128030000Y-27375814D01*
X128030001Y-29267917D01*
X124647920Y-32650000D01*
X97541741Y-32650000D01*
X97500000Y-32645889D01*
X97458259Y-32650000D01*
X97458251Y-32650000D01*
X97333371Y-32662300D01*
X97173145Y-32710903D01*
X97025481Y-32789832D01*
X96896052Y-32896052D01*
X96869439Y-32928480D01*
X93928486Y-35869434D01*
X93896052Y-35896052D01*
X93789832Y-36025482D01*
X93710903Y-36173146D01*
X93662300Y-36333372D01*
X93650000Y-36458252D01*
X93650000Y-36458259D01*
X93645889Y-36500000D01*
X93650000Y-36541741D01*
X93650001Y-79458249D01*
X93645889Y-79500000D01*
X93662300Y-79666629D01*
X93710903Y-79826854D01*
X93747644Y-79895589D01*
X93789833Y-79974519D01*
X93896053Y-80103948D01*
X93928481Y-80130561D01*
X95869439Y-82071519D01*
X95896052Y-82103948D01*
X96025481Y-82210168D01*
X96173145Y-82289097D01*
X96333370Y-82337700D01*
X96349013Y-82339241D01*
X96458251Y-82350000D01*
X91650000Y-82350000D01*
X91650000Y-22240745D01*
X92367736Y-22240745D01*
X92367736Y-22759255D01*
X92468893Y-23267803D01*
X92667318Y-23746844D01*
X92955387Y-24177970D01*
X93322030Y-24544613D01*
X93753156Y-24832682D01*
X94232197Y-25031107D01*
X94740745Y-25132264D01*
X95259255Y-25132264D01*
X95767803Y-25031107D01*
X96246844Y-24832682D01*
X96677970Y-24544613D01*
X97044613Y-24177970D01*
X97332682Y-23746844D01*
X97531107Y-23267803D01*
X97632264Y-22759255D01*
X97632264Y-22240745D01*
X97531107Y-21732197D01*
X97332682Y-21253156D01*
X97044613Y-20822030D01*
X96677970Y-20455387D01*
X96246844Y-20167318D01*
X95767803Y-19968893D01*
X95259255Y-19867736D01*
X94740745Y-19867736D01*
X94232197Y-19968893D01*
X93753156Y-20167318D01*
X93322030Y-20455387D01*
X92955387Y-20822030D01*
X92667318Y-21253156D01*
X92468893Y-21732197D01*
X92367736Y-22240745D01*
X91650000Y-22240745D01*
X91650000Y-19150000D01*
X142850000Y-19150000D01*
X142850001Y-82350000D01*
%TA.AperFunction,Conductor*%
D24*
G36*
X142850001Y-82350000D02*
G01*
X103041749Y-82350000D01*
X103166629Y-82337700D01*
X103326855Y-82289097D01*
X103474519Y-82210168D01*
X103603948Y-82103948D01*
X103630566Y-82071514D01*
X104531520Y-81170560D01*
X104563948Y-81143948D01*
X104670168Y-81014519D01*
X104749097Y-80866855D01*
X104772461Y-80789832D01*
X104797700Y-80706630D01*
X104802066Y-80662300D01*
X104810000Y-80581749D01*
X104810000Y-80581742D01*
X104814111Y-80540001D01*
X104810000Y-80498260D01*
X104810000Y-79488478D01*
X104969776Y-79328702D01*
X105112045Y-79115781D01*
X105199236Y-78905284D01*
X105197097Y-79200000D01*
X105208682Y-79317621D01*
X105242990Y-79430721D01*
X105298704Y-79534955D01*
X105373683Y-79626317D01*
X105465045Y-79701296D01*
X105569279Y-79757010D01*
X105682379Y-79791318D01*
X105800000Y-79802903D01*
X106200000Y-79800000D01*
X106350000Y-79650000D01*
X106350000Y-78650000D01*
X106650000Y-78650000D01*
X106650000Y-79650000D01*
X106800000Y-79800000D01*
X107200000Y-79802903D01*
X107317621Y-79791318D01*
X107430721Y-79757010D01*
X107534955Y-79701296D01*
X107626317Y-79626317D01*
X107701296Y-79534955D01*
X107757010Y-79430721D01*
X107791318Y-79317621D01*
X107802903Y-79200000D01*
X107800000Y-78800000D01*
X107650000Y-78650000D01*
X106650000Y-78650000D01*
X106350000Y-78650000D01*
X106330000Y-78650000D01*
X106330000Y-78350000D01*
X106350000Y-78350000D01*
X106350000Y-77350000D01*
X106650000Y-77350000D01*
X106650000Y-78350000D01*
X107650000Y-78350000D01*
X107800000Y-78200000D01*
X107802903Y-77800000D01*
X107791318Y-77682379D01*
X107757010Y-77569279D01*
X107701296Y-77465045D01*
X107626317Y-77373683D01*
X107534955Y-77298704D01*
X107430721Y-77242990D01*
X107317621Y-77208682D01*
X107200000Y-77197097D01*
X106800000Y-77200000D01*
X106650000Y-77350000D01*
X106350000Y-77350000D01*
X106200000Y-77200000D01*
X105800000Y-77197097D01*
X105682379Y-77208682D01*
X105569279Y-77242990D01*
X105465045Y-77298704D01*
X105373683Y-77373683D01*
X105298704Y-77465045D01*
X105242990Y-77569279D01*
X105208682Y-77682379D01*
X105197097Y-77800000D01*
X105199236Y-78094716D01*
X105112045Y-77884219D01*
X104969776Y-77671298D01*
X104788702Y-77490224D01*
X104575781Y-77347955D01*
X104339196Y-77249958D01*
X104088039Y-77200000D01*
X103831961Y-77200000D01*
X103580804Y-77249958D01*
X103344219Y-77347955D01*
X103131298Y-77490224D01*
X102950224Y-77671298D01*
X102807955Y-77884219D01*
X102709958Y-78120804D01*
X102660000Y-78371961D01*
X102660000Y-78628039D01*
X102709958Y-78879196D01*
X102807955Y-79115781D01*
X102950224Y-79328702D01*
X103110001Y-79488479D01*
X103110000Y-80187919D01*
X102647920Y-80650000D01*
X96852081Y-80650000D01*
X95350000Y-79147920D01*
X95350000Y-39120000D01*
X97525889Y-39120000D01*
X97530001Y-39161751D01*
X97530000Y-78541748D01*
X97542300Y-78666628D01*
X97590903Y-78826854D01*
X97668098Y-78971274D01*
X97727955Y-79115781D01*
X97870224Y-79328702D01*
X98051298Y-79509776D01*
X98264219Y-79652045D01*
X98500804Y-79750042D01*
X98751961Y-79800000D01*
X99008039Y-79800000D01*
X99259196Y-79750042D01*
X99495781Y-79652045D01*
X99708702Y-79509776D01*
X99889776Y-79328702D01*
X100032045Y-79115781D01*
X100130042Y-78879196D01*
X100180000Y-78628039D01*
X100180000Y-78371961D01*
X100130042Y-78120804D01*
X100032045Y-77884219D01*
X99889776Y-77671298D01*
X99708702Y-77490224D01*
X99495781Y-77347955D01*
X99259196Y-77249958D01*
X99230000Y-77244151D01*
X99230000Y-53145775D01*
X104720044Y-53145775D01*
X104733629Y-53219885D01*
X104854628Y-53508636D01*
X105029634Y-53768234D01*
X105251923Y-53988701D01*
X105512952Y-54161566D01*
X105802689Y-54280185D01*
X106110000Y-54340000D01*
X107100000Y-54340000D01*
X107100000Y-52900000D01*
X107400000Y-52900000D01*
X107400000Y-54340000D01*
X108390000Y-54340000D01*
X108697311Y-54280185D01*
X108987048Y-54161566D01*
X109248077Y-53988701D01*
X109470366Y-53768234D01*
X109645372Y-53508636D01*
X109766371Y-53219885D01*
X109779956Y-53145775D01*
X109672166Y-52900000D01*
X107400000Y-52900000D01*
X107100000Y-52900000D01*
X104827834Y-52900000D01*
X104720044Y-53145775D01*
X99230000Y-53145775D01*
X99230000Y-52354225D01*
X104720044Y-52354225D01*
X104827834Y-52600000D01*
X107100000Y-52600000D01*
X107100000Y-51160000D01*
X107400000Y-51160000D01*
X107400000Y-52600000D01*
X109672166Y-52600000D01*
X109779956Y-52354225D01*
X109766371Y-52280115D01*
X109645372Y-51991364D01*
X109470366Y-51731766D01*
X109248077Y-51511299D01*
X108987048Y-51338434D01*
X108697311Y-51219815D01*
X108390000Y-51160000D01*
X107400000Y-51160000D01*
X107100000Y-51160000D01*
X106110000Y-51160000D01*
X105802689Y-51219815D01*
X105512952Y-51338434D01*
X105251923Y-51511299D01*
X105029634Y-51731766D01*
X104854628Y-51991364D01*
X104733629Y-52280115D01*
X104720044Y-52354225D01*
X99230000Y-52354225D01*
X99230000Y-48488387D01*
X116223745Y-48488387D01*
X116299186Y-48719784D01*
X116550620Y-48833068D01*
X116819324Y-48895124D01*
X117094971Y-48903565D01*
X117366968Y-48858069D01*
X117624862Y-48760382D01*
X117700814Y-48719784D01*
X117776255Y-48488387D01*
X117000000Y-47712132D01*
X116223745Y-48488387D01*
X99230000Y-48488387D01*
X99230000Y-47594971D01*
X115596435Y-47594971D01*
X115641931Y-47866968D01*
X115739618Y-48124862D01*
X115780216Y-48200814D01*
X116011613Y-48276255D01*
X116787868Y-47500000D01*
X117212132Y-47500000D01*
X117988387Y-48276255D01*
X118219784Y-48200814D01*
X118333068Y-47949380D01*
X118395124Y-47680676D01*
X118403565Y-47405029D01*
X118358069Y-47133032D01*
X118260382Y-46875138D01*
X118219784Y-46799186D01*
X117988387Y-46723745D01*
X117212132Y-47500000D01*
X116787868Y-47500000D01*
X116011613Y-46723745D01*
X115780216Y-46799186D01*
X115666932Y-47050620D01*
X115604876Y-47319324D01*
X115596435Y-47594971D01*
X99230000Y-47594971D01*
X99230000Y-39472080D01*
X99852081Y-38850000D01*
X124647920Y-38850000D01*
X125490000Y-39692081D01*
X125490000Y-40384186D01*
X125447552Y-40412549D01*
X125252549Y-40607552D01*
X125099336Y-40836851D01*
X125070000Y-40907674D01*
X125040664Y-40836851D01*
X124887451Y-40607552D01*
X124692448Y-40412549D01*
X124463149Y-40259336D01*
X124208365Y-40153801D01*
X123937888Y-40100000D01*
X123662112Y-40100000D01*
X123391635Y-40153801D01*
X123136851Y-40259336D01*
X122907552Y-40412549D01*
X122712549Y-40607552D01*
X122559336Y-40836851D01*
X122530000Y-40907674D01*
X122500664Y-40836851D01*
X122347451Y-40607552D01*
X122152448Y-40412549D01*
X121923149Y-40259336D01*
X121668365Y-40153801D01*
X121397888Y-40100000D01*
X121122112Y-40100000D01*
X120851635Y-40153801D01*
X120596851Y-40259336D01*
X120367552Y-40412549D01*
X120172549Y-40607552D01*
X120019336Y-40836851D01*
X119990000Y-40907674D01*
X119960664Y-40836851D01*
X119807451Y-40607552D01*
X119612448Y-40412549D01*
X119383149Y-40259336D01*
X119128365Y-40153801D01*
X118857888Y-40100000D01*
X118582112Y-40100000D01*
X118311635Y-40153801D01*
X118056851Y-40259336D01*
X117827552Y-40412549D01*
X117632549Y-40607552D01*
X117479336Y-40836851D01*
X117450000Y-40907674D01*
X117420664Y-40836851D01*
X117267451Y-40607552D01*
X117072448Y-40412549D01*
X116843149Y-40259336D01*
X116588365Y-40153801D01*
X116317888Y-40100000D01*
X116042112Y-40100000D01*
X115771635Y-40153801D01*
X115516851Y-40259336D01*
X115287552Y-40412549D01*
X115092549Y-40607552D01*
X114939336Y-40836851D01*
X114910000Y-40907674D01*
X114880664Y-40836851D01*
X114727451Y-40607552D01*
X114532448Y-40412549D01*
X114303149Y-40259336D01*
X114048365Y-40153801D01*
X113777888Y-40100000D01*
X113502112Y-40100000D01*
X113231635Y-40153801D01*
X112976851Y-40259336D01*
X112747552Y-40412549D01*
X112552549Y-40607552D01*
X112399336Y-40836851D01*
X112370000Y-40907674D01*
X112340664Y-40836851D01*
X112187451Y-40607552D01*
X111992448Y-40412549D01*
X111763149Y-40259336D01*
X111508365Y-40153801D01*
X111237888Y-40100000D01*
X110962112Y-40100000D01*
X110691635Y-40153801D01*
X110436851Y-40259336D01*
X110207552Y-40412549D01*
X110012549Y-40607552D01*
X109859336Y-40836851D01*
X109830000Y-40907674D01*
X109800664Y-40836851D01*
X109647451Y-40607552D01*
X109452448Y-40412549D01*
X109223149Y-40259336D01*
X108968365Y-40153801D01*
X108697888Y-40100000D01*
X108422112Y-40100000D01*
X108151635Y-40153801D01*
X107896851Y-40259336D01*
X107667552Y-40412549D01*
X107472549Y-40607552D01*
X107319336Y-40836851D01*
X107290000Y-40907674D01*
X107260664Y-40836851D01*
X107107451Y-40607552D01*
X106912448Y-40412549D01*
X106683149Y-40259336D01*
X106428365Y-40153801D01*
X106157888Y-40100000D01*
X105882112Y-40100000D01*
X105611635Y-40153801D01*
X105356851Y-40259336D01*
X105127552Y-40412549D01*
X104932549Y-40607552D01*
X104779336Y-40836851D01*
X104750000Y-40907674D01*
X104720664Y-40836851D01*
X104567451Y-40607552D01*
X104372448Y-40412549D01*
X104143149Y-40259336D01*
X103888365Y-40153801D01*
X103617888Y-40100000D01*
X103342112Y-40100000D01*
X103071635Y-40153801D01*
X102816851Y-40259336D01*
X102587552Y-40412549D01*
X102392549Y-40607552D01*
X102239336Y-40836851D01*
X102210000Y-40907674D01*
X102180664Y-40836851D01*
X102027451Y-40607552D01*
X101832448Y-40412549D01*
X101603149Y-40259336D01*
X101348365Y-40153801D01*
X101077888Y-40100000D01*
X100802112Y-40100000D01*
X100531635Y-40153801D01*
X100276851Y-40259336D01*
X100047552Y-40412549D01*
X99852549Y-40607552D01*
X99699336Y-40836851D01*
X99593801Y-41091635D01*
X99540000Y-41362112D01*
X99540000Y-41637888D01*
X99593801Y-41908365D01*
X99699336Y-42163149D01*
X99852549Y-42392448D01*
X100047552Y-42587451D01*
X100276851Y-42740664D01*
X100531635Y-42846199D01*
X100802112Y-42900000D01*
X101077888Y-42900000D01*
X101348365Y-42846199D01*
X101603149Y-42740664D01*
X101832448Y-42587451D01*
X102027451Y-42392448D01*
X102180664Y-42163149D01*
X102210000Y-42092326D01*
X102239336Y-42163149D01*
X102392549Y-42392448D01*
X102587552Y-42587451D01*
X102630000Y-42615814D01*
X102630001Y-43938249D01*
X102625889Y-43980000D01*
X102642300Y-44146629D01*
X102690903Y-44306854D01*
X102705077Y-44333371D01*
X102769833Y-44454519D01*
X102876053Y-44583948D01*
X102908481Y-44610561D01*
X104369443Y-46071525D01*
X104396052Y-46103948D01*
X104428475Y-46130557D01*
X104428480Y-46130562D01*
X104525481Y-46210168D01*
X104673145Y-46289097D01*
X104833371Y-46337700D01*
X104958251Y-46350000D01*
X104958259Y-46350000D01*
X105000000Y-46354111D01*
X105041741Y-46350000D01*
X116276435Y-46350000D01*
X116223745Y-46511613D01*
X117000000Y-47287868D01*
X117776255Y-46511613D01*
X117723565Y-46350000D01*
X120647920Y-46350000D01*
X120650001Y-46352081D01*
X120650001Y-46384186D01*
X120607552Y-46412549D01*
X120412549Y-46607552D01*
X120259336Y-46836851D01*
X120153801Y-47091635D01*
X120100000Y-47362112D01*
X120100000Y-47637888D01*
X120153801Y-47908365D01*
X120259336Y-48163149D01*
X120412549Y-48392448D01*
X120607552Y-48587451D01*
X120836851Y-48740664D01*
X121091635Y-48846199D01*
X121362112Y-48900000D01*
X121637888Y-48900000D01*
X121908365Y-48846199D01*
X122163149Y-48740664D01*
X122392448Y-48587451D01*
X122491512Y-48488387D01*
X124723745Y-48488387D01*
X124799186Y-48719784D01*
X125050620Y-48833068D01*
X125319324Y-48895124D01*
X125594971Y-48903565D01*
X125866968Y-48858069D01*
X126124862Y-48760382D01*
X126200814Y-48719784D01*
X126276255Y-48488387D01*
X125500000Y-47712132D01*
X124723745Y-48488387D01*
X122491512Y-48488387D01*
X122587451Y-48392448D01*
X122740664Y-48163149D01*
X122846199Y-47908365D01*
X122900000Y-47637888D01*
X122900000Y-47594971D01*
X124096435Y-47594971D01*
X124141931Y-47866968D01*
X124239618Y-48124862D01*
X124280216Y-48200814D01*
X124511613Y-48276255D01*
X125287868Y-47500000D01*
X125712132Y-47500000D01*
X126488387Y-48276255D01*
X126719784Y-48200814D01*
X126833068Y-47949380D01*
X126895124Y-47680676D01*
X126903565Y-47405029D01*
X126858069Y-47133032D01*
X126760382Y-46875138D01*
X126719784Y-46799186D01*
X126488387Y-46723745D01*
X125712132Y-47500000D01*
X125287868Y-47500000D01*
X124511613Y-46723745D01*
X124280216Y-46799186D01*
X124166932Y-47050620D01*
X124104876Y-47319324D01*
X124096435Y-47594971D01*
X122900000Y-47594971D01*
X122900000Y-47362112D01*
X122846199Y-47091635D01*
X122740664Y-46836851D01*
X122587451Y-46607552D01*
X122491512Y-46511613D01*
X124723745Y-46511613D01*
X125500000Y-47287868D01*
X126276255Y-46511613D01*
X126200814Y-46280216D01*
X125949380Y-46166932D01*
X125680676Y-46104876D01*
X125405029Y-46096435D01*
X125133032Y-46141931D01*
X124875138Y-46239618D01*
X124799186Y-46280216D01*
X124723745Y-46511613D01*
X122491512Y-46511613D01*
X122392448Y-46412549D01*
X122350000Y-46384186D01*
X122350000Y-46041741D01*
X122354111Y-46000000D01*
X122350000Y-45958259D01*
X122350000Y-45958251D01*
X122337700Y-45833371D01*
X122289097Y-45673145D01*
X122210168Y-45525481D01*
X122103948Y-45396052D01*
X122071514Y-45369434D01*
X122052080Y-45350000D01*
X128647919Y-45350000D01*
X129150001Y-45852082D01*
X129150001Y-46384186D01*
X129107552Y-46412549D01*
X128912549Y-46607552D01*
X128759336Y-46836851D01*
X128653801Y-47091635D01*
X128600000Y-47362112D01*
X128600000Y-47637888D01*
X128653801Y-47908365D01*
X128759336Y-48163149D01*
X128912549Y-48392448D01*
X129107552Y-48587451D01*
X129336851Y-48740664D01*
X129591635Y-48846199D01*
X129862112Y-48900000D01*
X130137888Y-48900000D01*
X130408365Y-48846199D01*
X130663149Y-48740664D01*
X130892448Y-48587451D01*
X130991512Y-48488387D01*
X133223745Y-48488387D01*
X133299186Y-48719784D01*
X133550620Y-48833068D01*
X133819324Y-48895124D01*
X134094971Y-48903565D01*
X134366968Y-48858069D01*
X134624862Y-48760382D01*
X134700814Y-48719784D01*
X134776255Y-48488387D01*
X134000000Y-47712132D01*
X133223745Y-48488387D01*
X130991512Y-48488387D01*
X131087451Y-48392448D01*
X131240664Y-48163149D01*
X131346199Y-47908365D01*
X131400000Y-47637888D01*
X131400000Y-47594971D01*
X132596435Y-47594971D01*
X132641931Y-47866968D01*
X132739618Y-48124862D01*
X132780216Y-48200814D01*
X133011613Y-48276255D01*
X133787868Y-47500000D01*
X134212132Y-47500000D01*
X134988387Y-48276255D01*
X135219784Y-48200814D01*
X135333068Y-47949380D01*
X135395124Y-47680676D01*
X135403565Y-47405029D01*
X135358069Y-47133032D01*
X135260382Y-46875138D01*
X135219784Y-46799186D01*
X134988387Y-46723745D01*
X134212132Y-47500000D01*
X133787868Y-47500000D01*
X133011613Y-46723745D01*
X132780216Y-46799186D01*
X132666932Y-47050620D01*
X132604876Y-47319324D01*
X132596435Y-47594971D01*
X131400000Y-47594971D01*
X131400000Y-47362112D01*
X131346199Y-47091635D01*
X131240664Y-46836851D01*
X131087451Y-46607552D01*
X130991512Y-46511613D01*
X133223745Y-46511613D01*
X134000000Y-47287868D01*
X134776255Y-46511613D01*
X134700814Y-46280216D01*
X134449380Y-46166932D01*
X134180676Y-46104876D01*
X133905029Y-46096435D01*
X133633032Y-46141931D01*
X133375138Y-46239618D01*
X133299186Y-46280216D01*
X133223745Y-46511613D01*
X130991512Y-46511613D01*
X130892448Y-46412549D01*
X130850000Y-46384186D01*
X130850000Y-45541741D01*
X130854111Y-45500000D01*
X130850000Y-45458259D01*
X130850000Y-45458251D01*
X130837700Y-45333371D01*
X130789097Y-45173145D01*
X130710168Y-45025481D01*
X130630562Y-44928480D01*
X130630557Y-44928475D01*
X130603948Y-44896052D01*
X130571525Y-44869443D01*
X130052081Y-44350000D01*
X136647920Y-44350000D01*
X137650000Y-45352082D01*
X137650001Y-46384186D01*
X137607552Y-46412549D01*
X137412549Y-46607552D01*
X137259336Y-46836851D01*
X137153801Y-47091635D01*
X137100000Y-47362112D01*
X137100000Y-47637888D01*
X137153801Y-47908365D01*
X137259336Y-48163149D01*
X137412549Y-48392448D01*
X137607552Y-48587451D01*
X137836851Y-48740664D01*
X138091635Y-48846199D01*
X138362112Y-48900000D01*
X138637888Y-48900000D01*
X138908365Y-48846199D01*
X139163149Y-48740664D01*
X139392448Y-48587451D01*
X139587451Y-48392448D01*
X139740664Y-48163149D01*
X139788700Y-48047180D01*
X139788700Y-50052112D01*
X138440812Y-51400000D01*
X115816319Y-51400000D01*
X115750000Y-51393468D01*
X115683681Y-51400000D01*
X115683679Y-51400000D01*
X115485354Y-51419533D01*
X115230878Y-51496728D01*
X115203618Y-51511299D01*
X114996350Y-51622085D01*
X114879813Y-51717725D01*
X114790787Y-51790787D01*
X114748510Y-51842302D01*
X110190812Y-56400000D01*
X109710742Y-56400000D01*
X109656317Y-56333683D01*
X109564955Y-56258704D01*
X109460721Y-56202990D01*
X109347621Y-56168682D01*
X109230000Y-56157097D01*
X105270000Y-56157097D01*
X105152379Y-56168682D01*
X105039279Y-56202990D01*
X104935045Y-56258704D01*
X104843683Y-56333683D01*
X104768704Y-56425045D01*
X104712990Y-56529279D01*
X104678682Y-56642379D01*
X104667097Y-56760000D01*
X104667097Y-58740000D01*
X104678682Y-58857621D01*
X104712990Y-58970721D01*
X104768704Y-59074955D01*
X104843683Y-59166317D01*
X104935045Y-59241296D01*
X105039279Y-59297010D01*
X105152379Y-59331318D01*
X105270000Y-59342903D01*
X105900001Y-59342903D01*
X105900000Y-68933681D01*
X105893468Y-69000000D01*
X105900000Y-69066319D01*
X105900000Y-69066320D01*
X105919533Y-69264645D01*
X105996728Y-69519121D01*
X106055081Y-69628292D01*
X106122085Y-69753649D01*
X106248510Y-69907698D01*
X106248513Y-69907701D01*
X106290787Y-69959212D01*
X106342299Y-70001487D01*
X116748509Y-80407697D01*
X116790787Y-80459213D01*
X116996351Y-80627915D01*
X117230878Y-80753272D01*
X117485354Y-80830467D01*
X117683679Y-80850000D01*
X117683688Y-80850000D01*
X117749999Y-80856531D01*
X117816310Y-80850000D01*
X120157097Y-80850000D01*
X120157097Y-81480000D01*
X120168682Y-81597621D01*
X120202990Y-81710721D01*
X120258704Y-81814955D01*
X120333683Y-81906317D01*
X120425045Y-81981296D01*
X120529279Y-82037010D01*
X120642379Y-82071318D01*
X120760000Y-82082903D01*
X122740000Y-82082903D01*
X122857621Y-82071318D01*
X122970721Y-82037010D01*
X123074955Y-81981296D01*
X123166317Y-81906317D01*
X123241296Y-81814955D01*
X123297010Y-81710721D01*
X123331318Y-81597621D01*
X123342903Y-81480000D01*
X123342903Y-77520000D01*
X123331318Y-77402379D01*
X123297010Y-77289279D01*
X123241296Y-77185045D01*
X123166317Y-77093683D01*
X123074955Y-77018704D01*
X122970721Y-76962990D01*
X122857621Y-76928682D01*
X122740000Y-76917097D01*
X120760000Y-76917097D01*
X120642379Y-76928682D01*
X120529279Y-76962990D01*
X120425045Y-77018704D01*
X120333683Y-77093683D01*
X120258704Y-77185045D01*
X120202990Y-77289279D01*
X120168682Y-77402379D01*
X120157097Y-77520000D01*
X120157097Y-78150000D01*
X118309188Y-78150000D01*
X108600000Y-68440812D01*
X108600000Y-64225000D01*
X115457097Y-64225000D01*
X115457097Y-70625000D01*
X115468682Y-70742621D01*
X115502990Y-70855721D01*
X115558704Y-70959955D01*
X115633683Y-71051317D01*
X115725045Y-71126296D01*
X115829279Y-71182010D01*
X115942379Y-71216318D01*
X116060000Y-71227903D01*
X118318715Y-71227903D01*
X125207703Y-78116891D01*
X125183006Y-78198307D01*
X125160000Y-78431892D01*
X125160001Y-80568109D01*
X125183007Y-80801694D01*
X125273925Y-81101411D01*
X125421568Y-81377631D01*
X125620261Y-81619740D01*
X125862370Y-81818433D01*
X126138590Y-81966076D01*
X126438307Y-82056994D01*
X126750000Y-82087693D01*
X127061694Y-82056994D01*
X127361411Y-81966076D01*
X127637631Y-81818433D01*
X127879740Y-81619740D01*
X128078433Y-81377631D01*
X128226076Y-81101411D01*
X128316994Y-80801694D01*
X128340000Y-80568109D01*
X128340000Y-78431891D01*
X128316994Y-78198306D01*
X128226076Y-77898589D01*
X128097469Y-77657983D01*
X128080467Y-77485354D01*
X128003272Y-77230878D01*
X128003272Y-77230877D01*
X127877915Y-76996350D01*
X127751490Y-76842302D01*
X127709213Y-76790787D01*
X127657697Y-76748509D01*
X122091032Y-71181844D01*
X122194955Y-71126296D01*
X122286317Y-71051317D01*
X122361296Y-70959955D01*
X122417010Y-70855721D01*
X122451318Y-70742621D01*
X122462903Y-70625000D01*
X122462903Y-64225000D01*
X123972097Y-64225000D01*
X123972097Y-70625000D01*
X123983682Y-70742621D01*
X124017990Y-70855721D01*
X124073704Y-70959955D01*
X124148683Y-71051317D01*
X124240045Y-71126296D01*
X124344279Y-71182010D01*
X124457379Y-71216318D01*
X124575000Y-71227903D01*
X126125000Y-71227903D01*
X126125000Y-71908681D01*
X126118468Y-71975000D01*
X126125000Y-72041319D01*
X126125000Y-72041320D01*
X126144533Y-72239645D01*
X126221728Y-72494121D01*
X126221729Y-72494122D01*
X126347085Y-72728649D01*
X126473510Y-72882698D01*
X126473513Y-72882701D01*
X126515787Y-72934212D01*
X126567299Y-72976487D01*
X130400001Y-76809190D01*
X130400001Y-77662718D01*
X130273924Y-77898590D01*
X130183006Y-78198307D01*
X130160000Y-78431892D01*
X130160001Y-80568109D01*
X130183007Y-80801694D01*
X130273925Y-81101411D01*
X130421568Y-81377631D01*
X130620261Y-81619740D01*
X130862370Y-81818433D01*
X131138590Y-81966076D01*
X131438307Y-82056994D01*
X131750000Y-82087693D01*
X132061694Y-82056994D01*
X132361411Y-81966076D01*
X132637631Y-81818433D01*
X132879740Y-81619740D01*
X133078433Y-81377631D01*
X133226076Y-81101411D01*
X133316994Y-80801694D01*
X133340000Y-80568109D01*
X133340000Y-78431891D01*
X133316994Y-78198306D01*
X133226076Y-77898589D01*
X133100000Y-77662718D01*
X133100000Y-76316319D01*
X133106532Y-76250000D01*
X133100000Y-76183679D01*
X133080467Y-75985354D01*
X133003272Y-75730878D01*
X132944919Y-75621707D01*
X132877915Y-75496350D01*
X132751490Y-75342301D01*
X132751487Y-75342298D01*
X132709213Y-75290787D01*
X132657702Y-75248513D01*
X128825000Y-71415812D01*
X128825000Y-71227903D01*
X130375000Y-71227903D01*
X130492621Y-71216318D01*
X130605721Y-71182010D01*
X130709955Y-71126296D01*
X130801317Y-71051317D01*
X130876296Y-70959955D01*
X130932010Y-70855721D01*
X130966318Y-70742621D01*
X130977903Y-70625000D01*
X130977903Y-64225000D01*
X132497097Y-64225000D01*
X132497097Y-70625000D01*
X132508682Y-70742621D01*
X132542990Y-70855721D01*
X132598704Y-70959955D01*
X132673683Y-71051317D01*
X132765045Y-71126296D01*
X132869279Y-71182010D01*
X132982379Y-71216318D01*
X133100000Y-71227903D01*
X135400001Y-71227903D01*
X135400000Y-77662719D01*
X135273924Y-77898590D01*
X135183006Y-78198307D01*
X135160000Y-78431892D01*
X135160001Y-80568109D01*
X135183007Y-80801694D01*
X135273925Y-81101411D01*
X135421568Y-81377631D01*
X135620261Y-81619740D01*
X135862370Y-81818433D01*
X136138590Y-81966076D01*
X136438307Y-82056994D01*
X136750000Y-82087693D01*
X137061694Y-82056994D01*
X137361411Y-81966076D01*
X137637631Y-81818433D01*
X137879740Y-81619740D01*
X138078433Y-81377631D01*
X138226076Y-81101411D01*
X138316994Y-80801694D01*
X138340000Y-80568109D01*
X138340000Y-78431891D01*
X138316994Y-78198306D01*
X138226076Y-77898589D01*
X138100000Y-77662718D01*
X138100000Y-71227903D01*
X138900000Y-71227903D01*
X139017621Y-71216318D01*
X139130721Y-71182010D01*
X139234955Y-71126296D01*
X139326317Y-71051317D01*
X139401296Y-70959955D01*
X139457010Y-70855721D01*
X139491318Y-70742621D01*
X139502903Y-70625000D01*
X139502903Y-64225000D01*
X139491318Y-64107379D01*
X139457010Y-63994279D01*
X139401296Y-63890045D01*
X139326317Y-63798683D01*
X139234955Y-63723704D01*
X139130721Y-63667990D01*
X139017621Y-63633682D01*
X138900000Y-63622097D01*
X133100000Y-63622097D01*
X132982379Y-63633682D01*
X132869279Y-63667990D01*
X132765045Y-63723704D01*
X132673683Y-63798683D01*
X132598704Y-63890045D01*
X132542990Y-63994279D01*
X132508682Y-64107379D01*
X132497097Y-64225000D01*
X130977903Y-64225000D01*
X130966318Y-64107379D01*
X130932010Y-63994279D01*
X130876296Y-63890045D01*
X130801317Y-63798683D01*
X130709955Y-63723704D01*
X130605721Y-63667990D01*
X130492621Y-63633682D01*
X130375000Y-63622097D01*
X124575000Y-63622097D01*
X124457379Y-63633682D01*
X124344279Y-63667990D01*
X124240045Y-63723704D01*
X124148683Y-63798683D01*
X124073704Y-63890045D01*
X124017990Y-63994279D01*
X123983682Y-64107379D01*
X123972097Y-64225000D01*
X122462903Y-64225000D01*
X122451318Y-64107379D01*
X122417010Y-63994279D01*
X122361296Y-63890045D01*
X122286317Y-63798683D01*
X122194955Y-63723704D01*
X122090721Y-63667990D01*
X121977621Y-63633682D01*
X121860000Y-63622097D01*
X116060000Y-63622097D01*
X115942379Y-63633682D01*
X115829279Y-63667990D01*
X115725045Y-63723704D01*
X115633683Y-63798683D01*
X115558704Y-63890045D01*
X115502990Y-63994279D01*
X115468682Y-64107379D01*
X115457097Y-64225000D01*
X108600000Y-64225000D01*
X108600000Y-62225000D01*
X115477097Y-62225000D01*
X115488682Y-62342621D01*
X115522990Y-62455721D01*
X115578704Y-62559955D01*
X115653683Y-62651317D01*
X115745045Y-62726296D01*
X115849279Y-62782010D01*
X115962379Y-62816318D01*
X116080000Y-62827903D01*
X116380000Y-62825000D01*
X116530000Y-62675000D01*
X116530000Y-61275000D01*
X116830000Y-61275000D01*
X116830000Y-62675000D01*
X116980000Y-62825000D01*
X117280000Y-62827903D01*
X117397621Y-62816318D01*
X117510721Y-62782010D01*
X117614955Y-62726296D01*
X117706317Y-62651317D01*
X117781296Y-62559955D01*
X117837010Y-62455721D01*
X117871318Y-62342621D01*
X117882903Y-62225000D01*
X117880000Y-61425000D01*
X117730000Y-61275000D01*
X116830000Y-61275000D01*
X116530000Y-61275000D01*
X115630000Y-61275000D01*
X115480000Y-61425000D01*
X115477097Y-62225000D01*
X108600000Y-62225000D01*
X108600000Y-60025000D01*
X115477097Y-60025000D01*
X115480000Y-60825000D01*
X115630000Y-60975000D01*
X116530000Y-60975000D01*
X116530000Y-59575000D01*
X116830000Y-59575000D01*
X116830000Y-60975000D01*
X117730000Y-60975000D01*
X117880000Y-60825000D01*
X117882903Y-60025000D01*
X117871318Y-59907379D01*
X117837010Y-59794279D01*
X117781296Y-59690045D01*
X117706317Y-59598683D01*
X117614955Y-59523704D01*
X117510721Y-59467990D01*
X117397621Y-59433682D01*
X117280000Y-59422097D01*
X116980000Y-59425000D01*
X116830000Y-59575000D01*
X116530000Y-59575000D01*
X116380000Y-59425000D01*
X116080000Y-59422097D01*
X115962379Y-59433682D01*
X115849279Y-59467990D01*
X115745045Y-59523704D01*
X115653683Y-59598683D01*
X115578704Y-59690045D01*
X115522990Y-59794279D01*
X115488682Y-59907379D01*
X115477097Y-60025000D01*
X108600000Y-60025000D01*
X108600000Y-59342903D01*
X109230000Y-59342903D01*
X109347621Y-59331318D01*
X109460721Y-59297010D01*
X109564955Y-59241296D01*
X109656317Y-59166317D01*
X109710742Y-59100000D01*
X110683681Y-59100000D01*
X110750000Y-59106532D01*
X110816319Y-59100000D01*
X110816321Y-59100000D01*
X111014646Y-59080467D01*
X111269122Y-59003272D01*
X111503649Y-58877915D01*
X111709213Y-58709213D01*
X111751491Y-58657697D01*
X112887076Y-57522112D01*
X115600000Y-57522112D01*
X115600000Y-57797888D01*
X115653801Y-58068365D01*
X115759336Y-58323149D01*
X115912549Y-58552448D01*
X116107552Y-58747451D01*
X116336851Y-58900664D01*
X116591635Y-59006199D01*
X116862112Y-59060000D01*
X117137888Y-59060000D01*
X117408365Y-59006199D01*
X117663149Y-58900664D01*
X117892448Y-58747451D01*
X118087451Y-58552448D01*
X118115814Y-58510000D01*
X120384186Y-58510000D01*
X120412549Y-58552448D01*
X120607552Y-58747451D01*
X120650000Y-58775814D01*
X120650001Y-59422097D01*
X120640000Y-59422097D01*
X120522379Y-59433682D01*
X120409279Y-59467990D01*
X120305045Y-59523704D01*
X120213683Y-59598683D01*
X120138704Y-59690045D01*
X120082990Y-59794279D01*
X120048682Y-59907379D01*
X120037097Y-60025000D01*
X120037097Y-62225000D01*
X120048682Y-62342621D01*
X120082990Y-62455721D01*
X120138704Y-62559955D01*
X120213683Y-62651317D01*
X120305045Y-62726296D01*
X120409279Y-62782010D01*
X120522379Y-62816318D01*
X120640000Y-62827903D01*
X121840000Y-62827903D01*
X121957621Y-62816318D01*
X122070721Y-62782010D01*
X122174955Y-62726296D01*
X122266317Y-62651317D01*
X122341296Y-62559955D01*
X122397010Y-62455721D01*
X122431318Y-62342621D01*
X122442903Y-62225000D01*
X123992097Y-62225000D01*
X124003682Y-62342621D01*
X124037990Y-62455721D01*
X124093704Y-62559955D01*
X124168683Y-62651317D01*
X124260045Y-62726296D01*
X124364279Y-62782010D01*
X124477379Y-62816318D01*
X124595000Y-62827903D01*
X124895000Y-62825000D01*
X125045000Y-62675000D01*
X125045000Y-61275000D01*
X125345000Y-61275000D01*
X125345000Y-62675000D01*
X125495000Y-62825000D01*
X125795000Y-62827903D01*
X125912621Y-62816318D01*
X126025721Y-62782010D01*
X126129955Y-62726296D01*
X126221317Y-62651317D01*
X126296296Y-62559955D01*
X126352010Y-62455721D01*
X126386318Y-62342621D01*
X126397903Y-62225000D01*
X126395000Y-61425000D01*
X126245000Y-61275000D01*
X125345000Y-61275000D01*
X125045000Y-61275000D01*
X124145000Y-61275000D01*
X123995000Y-61425000D01*
X123992097Y-62225000D01*
X122442903Y-62225000D01*
X122442903Y-60025000D01*
X123992097Y-60025000D01*
X123995000Y-60825000D01*
X124145000Y-60975000D01*
X125045000Y-60975000D01*
X125045000Y-59575000D01*
X125345000Y-59575000D01*
X125345000Y-60975000D01*
X126245000Y-60975000D01*
X126395000Y-60825000D01*
X126397903Y-60025000D01*
X126386318Y-59907379D01*
X126352010Y-59794279D01*
X126296296Y-59690045D01*
X126221317Y-59598683D01*
X126129955Y-59523704D01*
X126025721Y-59467990D01*
X125912621Y-59433682D01*
X125795000Y-59422097D01*
X125495000Y-59425000D01*
X125345000Y-59575000D01*
X125045000Y-59575000D01*
X124895000Y-59425000D01*
X124595000Y-59422097D01*
X124477379Y-59433682D01*
X124364279Y-59467990D01*
X124260045Y-59523704D01*
X124168683Y-59598683D01*
X124093704Y-59690045D01*
X124037990Y-59794279D01*
X124003682Y-59907379D01*
X123992097Y-60025000D01*
X122442903Y-60025000D01*
X122431318Y-59907379D01*
X122397010Y-59794279D01*
X122350000Y-59706329D01*
X122350000Y-58775814D01*
X122392448Y-58747451D01*
X122587451Y-58552448D01*
X122740664Y-58323149D01*
X122846199Y-58068365D01*
X122900000Y-57797888D01*
X122900000Y-57522112D01*
X124100000Y-57522112D01*
X124100000Y-57797888D01*
X124153801Y-58068365D01*
X124259336Y-58323149D01*
X124412549Y-58552448D01*
X124607552Y-58747451D01*
X124836851Y-58900664D01*
X125091635Y-59006199D01*
X125362112Y-59060000D01*
X125637888Y-59060000D01*
X125908365Y-59006199D01*
X126163149Y-58900664D01*
X126392448Y-58747451D01*
X126587451Y-58552448D01*
X126615814Y-58510000D01*
X128884186Y-58510000D01*
X128912549Y-58552448D01*
X129107552Y-58747451D01*
X129150000Y-58775814D01*
X129150001Y-59422589D01*
X129037379Y-59433682D01*
X128924279Y-59467990D01*
X128820045Y-59523704D01*
X128728683Y-59598683D01*
X128653704Y-59690045D01*
X128597990Y-59794279D01*
X128563682Y-59907379D01*
X128552097Y-60025000D01*
X128552097Y-62225000D01*
X128563682Y-62342621D01*
X128597990Y-62455721D01*
X128653704Y-62559955D01*
X128728683Y-62651317D01*
X128820045Y-62726296D01*
X128924279Y-62782010D01*
X129037379Y-62816318D01*
X129155000Y-62827903D01*
X130355000Y-62827903D01*
X130472621Y-62816318D01*
X130585721Y-62782010D01*
X130689955Y-62726296D01*
X130781317Y-62651317D01*
X130856296Y-62559955D01*
X130912010Y-62455721D01*
X130946318Y-62342621D01*
X130957903Y-62225000D01*
X132517097Y-62225000D01*
X132528682Y-62342621D01*
X132562990Y-62455721D01*
X132618704Y-62559955D01*
X132693683Y-62651317D01*
X132785045Y-62726296D01*
X132889279Y-62782010D01*
X133002379Y-62816318D01*
X133120000Y-62827903D01*
X133420000Y-62825000D01*
X133570000Y-62675000D01*
X133570000Y-61275000D01*
X133870000Y-61275000D01*
X133870000Y-62675000D01*
X134020000Y-62825000D01*
X134320000Y-62827903D01*
X134437621Y-62816318D01*
X134550721Y-62782010D01*
X134654955Y-62726296D01*
X134746317Y-62651317D01*
X134821296Y-62559955D01*
X134877010Y-62455721D01*
X134911318Y-62342621D01*
X134922903Y-62225000D01*
X134920000Y-61425000D01*
X134770000Y-61275000D01*
X133870000Y-61275000D01*
X133570000Y-61275000D01*
X132670000Y-61275000D01*
X132520000Y-61425000D01*
X132517097Y-62225000D01*
X130957903Y-62225000D01*
X130957903Y-60025000D01*
X132517097Y-60025000D01*
X132520000Y-60825000D01*
X132670000Y-60975000D01*
X133570000Y-60975000D01*
X133570000Y-59575000D01*
X133870000Y-59575000D01*
X133870000Y-60975000D01*
X134770000Y-60975000D01*
X134920000Y-60825000D01*
X134922903Y-60025000D01*
X134911318Y-59907379D01*
X134877010Y-59794279D01*
X134821296Y-59690045D01*
X134746317Y-59598683D01*
X134654955Y-59523704D01*
X134550721Y-59467990D01*
X134437621Y-59433682D01*
X134320000Y-59422097D01*
X134020000Y-59425000D01*
X133870000Y-59575000D01*
X133570000Y-59575000D01*
X133420000Y-59425000D01*
X133120000Y-59422097D01*
X133002379Y-59433682D01*
X132889279Y-59467990D01*
X132785045Y-59523704D01*
X132693683Y-59598683D01*
X132618704Y-59690045D01*
X132562990Y-59794279D01*
X132528682Y-59907379D01*
X132517097Y-60025000D01*
X130957903Y-60025000D01*
X130946318Y-59907379D01*
X130912010Y-59794279D01*
X130856296Y-59690045D01*
X130850000Y-59682373D01*
X130850000Y-58775814D01*
X130892448Y-58747451D01*
X131087451Y-58552448D01*
X131240664Y-58323149D01*
X131346199Y-58068365D01*
X131400000Y-57797888D01*
X131400000Y-57522112D01*
X132600000Y-57522112D01*
X132600000Y-57797888D01*
X132653801Y-58068365D01*
X132759336Y-58323149D01*
X132912549Y-58552448D01*
X133107552Y-58747451D01*
X133336851Y-58900664D01*
X133591635Y-59006199D01*
X133862112Y-59060000D01*
X134137888Y-59060000D01*
X134408365Y-59006199D01*
X134663149Y-58900664D01*
X134892448Y-58747451D01*
X135087451Y-58552448D01*
X135115814Y-58510000D01*
X137384186Y-58510000D01*
X137412549Y-58552448D01*
X137607552Y-58747451D01*
X137650000Y-58775814D01*
X137650001Y-59425052D01*
X137562379Y-59433682D01*
X137449279Y-59467990D01*
X137345045Y-59523704D01*
X137253683Y-59598683D01*
X137178704Y-59690045D01*
X137122990Y-59794279D01*
X137088682Y-59907379D01*
X137077097Y-60025000D01*
X137077097Y-62225000D01*
X137088682Y-62342621D01*
X137122990Y-62455721D01*
X137178704Y-62559955D01*
X137253683Y-62651317D01*
X137345045Y-62726296D01*
X137449279Y-62782010D01*
X137562379Y-62816318D01*
X137680000Y-62827903D01*
X138880000Y-62827903D01*
X138997621Y-62816318D01*
X139110721Y-62782010D01*
X139214955Y-62726296D01*
X139306317Y-62651317D01*
X139381296Y-62559955D01*
X139437010Y-62455721D01*
X139471318Y-62342621D01*
X139482903Y-62225000D01*
X139482903Y-60025000D01*
X139471318Y-59907379D01*
X139437010Y-59794279D01*
X139381296Y-59690045D01*
X139350000Y-59651911D01*
X139350000Y-58775814D01*
X139392448Y-58747451D01*
X139587451Y-58552448D01*
X139740664Y-58323149D01*
X139846199Y-58068365D01*
X139900000Y-57797888D01*
X139900000Y-57522112D01*
X139846199Y-57251635D01*
X139740664Y-56996851D01*
X139587451Y-56767552D01*
X139392448Y-56572549D01*
X139163149Y-56419336D01*
X138908365Y-56313801D01*
X138637888Y-56260000D01*
X138362112Y-56260000D01*
X138091635Y-56313801D01*
X137836851Y-56419336D01*
X137607552Y-56572549D01*
X137412549Y-56767552D01*
X137384186Y-56810000D01*
X135115814Y-56810000D01*
X135087451Y-56767552D01*
X134892448Y-56572549D01*
X134663149Y-56419336D01*
X134408365Y-56313801D01*
X134137888Y-56260000D01*
X133862112Y-56260000D01*
X133591635Y-56313801D01*
X133336851Y-56419336D01*
X133107552Y-56572549D01*
X132912549Y-56767552D01*
X132759336Y-56996851D01*
X132653801Y-57251635D01*
X132600000Y-57522112D01*
X131400000Y-57522112D01*
X131346199Y-57251635D01*
X131240664Y-56996851D01*
X131087451Y-56767552D01*
X130892448Y-56572549D01*
X130663149Y-56419336D01*
X130408365Y-56313801D01*
X130137888Y-56260000D01*
X129862112Y-56260000D01*
X129591635Y-56313801D01*
X129336851Y-56419336D01*
X129107552Y-56572549D01*
X128912549Y-56767552D01*
X128884186Y-56810000D01*
X126615814Y-56810000D01*
X126587451Y-56767552D01*
X126392448Y-56572549D01*
X126163149Y-56419336D01*
X125908365Y-56313801D01*
X125637888Y-56260000D01*
X125362112Y-56260000D01*
X125091635Y-56313801D01*
X124836851Y-56419336D01*
X124607552Y-56572549D01*
X124412549Y-56767552D01*
X124259336Y-56996851D01*
X124153801Y-57251635D01*
X124100000Y-57522112D01*
X122900000Y-57522112D01*
X122846199Y-57251635D01*
X122740664Y-56996851D01*
X122587451Y-56767552D01*
X122392448Y-56572549D01*
X122163149Y-56419336D01*
X121908365Y-56313801D01*
X121637888Y-56260000D01*
X121362112Y-56260000D01*
X121091635Y-56313801D01*
X120836851Y-56419336D01*
X120607552Y-56572549D01*
X120412549Y-56767552D01*
X120384186Y-56810000D01*
X118115814Y-56810000D01*
X118087451Y-56767552D01*
X117892448Y-56572549D01*
X117663149Y-56419336D01*
X117408365Y-56313801D01*
X117137888Y-56260000D01*
X116862112Y-56260000D01*
X116591635Y-56313801D01*
X116336851Y-56419336D01*
X116107552Y-56572549D01*
X115912549Y-56767552D01*
X115759336Y-56996851D01*
X115653801Y-57251635D01*
X115600000Y-57522112D01*
X112887076Y-57522112D01*
X116309188Y-54100000D01*
X138933681Y-54100000D01*
X139000000Y-54106532D01*
X139066319Y-54100000D01*
X139066321Y-54100000D01*
X139264646Y-54080467D01*
X139519122Y-54003272D01*
X139753649Y-53877915D01*
X139959213Y-53709213D01*
X140001491Y-53657697D01*
X142046401Y-51612787D01*
X142097912Y-51570513D01*
X142158466Y-51496729D01*
X142266615Y-51364949D01*
X142391972Y-51130423D01*
X142409939Y-51071195D01*
X142469167Y-50875946D01*
X142488700Y-50677621D01*
X142488700Y-50677619D01*
X142495232Y-50611300D01*
X142488700Y-50544981D01*
X142488700Y-28205018D01*
X142495232Y-28138699D01*
X142488700Y-28072379D01*
X142469167Y-27874054D01*
X142391972Y-27619578D01*
X142268146Y-27387915D01*
X142266615Y-27385050D01*
X142140190Y-27231001D01*
X142140187Y-27230998D01*
X142097913Y-27179487D01*
X142046402Y-27137213D01*
X140261491Y-25352303D01*
X140219213Y-25300787D01*
X140013649Y-25132085D01*
X139944898Y-25095337D01*
X140267803Y-25031107D01*
X140746844Y-24832682D01*
X141177970Y-24544613D01*
X141544613Y-24177970D01*
X141832682Y-23746844D01*
X142031107Y-23267803D01*
X142132264Y-22759255D01*
X142132264Y-22240745D01*
X142031107Y-21732197D01*
X141832682Y-21253156D01*
X141544613Y-20822030D01*
X141177970Y-20455387D01*
X140746844Y-20167318D01*
X140267803Y-19968893D01*
X139759255Y-19867736D01*
X139240745Y-19867736D01*
X138732197Y-19968893D01*
X138253156Y-20167318D01*
X137822030Y-20455387D01*
X137455387Y-20822030D01*
X137167318Y-21253156D01*
X136968893Y-21732197D01*
X136867736Y-22240745D01*
X136867736Y-22759255D01*
X136968893Y-23267803D01*
X137167318Y-23746844D01*
X137455387Y-24177970D01*
X137822030Y-24544613D01*
X138253156Y-24832682D01*
X138439818Y-24910000D01*
X136889256Y-24910000D01*
X136637888Y-24860000D01*
X136362112Y-24860000D01*
X136091635Y-24913801D01*
X135836851Y-25019336D01*
X135607552Y-25172549D01*
X135412549Y-25367552D01*
X135259336Y-25596851D01*
X135227622Y-25673414D01*
X135213995Y-25637494D01*
X135068455Y-25404813D01*
X134880318Y-25204996D01*
X134656813Y-25045722D01*
X134406530Y-24933113D01*
X134325901Y-24908661D01*
X134110000Y-25019033D01*
X134110000Y-26110000D01*
X134130000Y-26110000D01*
X134130000Y-26410000D01*
X134110000Y-26410000D01*
X134110000Y-27500967D01*
X134325901Y-27611339D01*
X134406530Y-27586887D01*
X134656813Y-27474278D01*
X134880318Y-27315004D01*
X135068455Y-27115187D01*
X135213995Y-26882506D01*
X135227622Y-26846586D01*
X135259336Y-26923149D01*
X135412549Y-27152448D01*
X135607552Y-27347451D01*
X135836851Y-27500664D01*
X136091635Y-27606199D01*
X136362112Y-27660000D01*
X136637888Y-27660000D01*
X136889256Y-27610000D01*
X138700812Y-27610000D01*
X139788701Y-28697890D01*
X139788700Y-46952821D01*
X139740664Y-46836851D01*
X139587451Y-46607552D01*
X139392448Y-46412549D01*
X139350000Y-46384186D01*
X139350000Y-45041737D01*
X139354111Y-44999999D01*
X139350000Y-44958261D01*
X139350000Y-44958251D01*
X139337700Y-44833371D01*
X139289097Y-44673145D01*
X139210168Y-44525481D01*
X139151930Y-44454518D01*
X139130561Y-44428479D01*
X139130557Y-44428475D01*
X139103948Y-44396052D01*
X139071526Y-44369444D01*
X137630566Y-42928486D01*
X137603948Y-42896052D01*
X137546257Y-42848706D01*
X137634955Y-42801296D01*
X137726317Y-42726317D01*
X137801296Y-42634955D01*
X137857010Y-42530721D01*
X137891318Y-42417621D01*
X137902903Y-42300000D01*
X137902903Y-40700000D01*
X137891318Y-40582379D01*
X137857010Y-40469279D01*
X137801296Y-40365045D01*
X137726317Y-40273683D01*
X137634955Y-40198704D01*
X137530721Y-40142990D01*
X137417621Y-40108682D01*
X137300000Y-40097097D01*
X135700000Y-40097097D01*
X135582379Y-40108682D01*
X135469279Y-40142990D01*
X135365045Y-40198704D01*
X135273683Y-40273683D01*
X135198704Y-40365045D01*
X135142990Y-40469279D01*
X135108682Y-40582379D01*
X135098655Y-40684184D01*
X135047451Y-40607552D01*
X134852448Y-40412549D01*
X134623149Y-40259336D01*
X134368365Y-40153801D01*
X134097888Y-40100000D01*
X133822112Y-40100000D01*
X133551635Y-40153801D01*
X133296851Y-40259336D01*
X133067552Y-40412549D01*
X132872549Y-40607552D01*
X132719336Y-40836851D01*
X132690000Y-40907674D01*
X132660664Y-40836851D01*
X132507451Y-40607552D01*
X132312448Y-40412549D01*
X132083149Y-40259336D01*
X131828365Y-40153801D01*
X131557888Y-40100000D01*
X131282112Y-40100000D01*
X131011635Y-40153801D01*
X130756851Y-40259336D01*
X130527552Y-40412549D01*
X130332549Y-40607552D01*
X130179336Y-40836851D01*
X130147622Y-40913414D01*
X130133995Y-40877494D01*
X129988455Y-40644813D01*
X129800318Y-40444996D01*
X129576813Y-40285722D01*
X129326530Y-40173113D01*
X129245901Y-40148661D01*
X129030000Y-40259033D01*
X129030000Y-41350000D01*
X129050000Y-41350000D01*
X129050000Y-41650000D01*
X129030000Y-41650000D01*
X129030000Y-41670000D01*
X128730000Y-41670000D01*
X128730000Y-41650000D01*
X128710000Y-41650000D01*
X128710000Y-41350000D01*
X128730000Y-41350000D01*
X128730000Y-40259033D01*
X128514099Y-40148661D01*
X128433470Y-40173113D01*
X128183187Y-40285722D01*
X127959682Y-40444996D01*
X127771545Y-40644813D01*
X127626005Y-40877494D01*
X127612378Y-40913414D01*
X127580664Y-40836851D01*
X127427451Y-40607552D01*
X127232448Y-40412549D01*
X127190000Y-40384186D01*
X127190000Y-39381740D01*
X127194111Y-39339999D01*
X127190000Y-39298258D01*
X127190000Y-39298251D01*
X127177700Y-39173371D01*
X127161511Y-39120000D01*
X127129097Y-39013145D01*
X127050168Y-38865481D01*
X126943948Y-38736052D01*
X126911521Y-38709440D01*
X125630566Y-37428486D01*
X125603948Y-37396052D01*
X125474519Y-37289832D01*
X125326855Y-37210903D01*
X125166629Y-37162300D01*
X125041749Y-37150000D01*
X125041741Y-37150000D01*
X125000000Y-37145889D01*
X124958259Y-37150000D01*
X99541740Y-37150000D01*
X99499999Y-37145889D01*
X99458258Y-37150000D01*
X99458251Y-37150000D01*
X99349013Y-37160759D01*
X99333370Y-37162300D01*
X99175571Y-37210167D01*
X99173145Y-37210903D01*
X99025481Y-37289832D01*
X98896052Y-37396052D01*
X98869438Y-37428481D01*
X97808481Y-38489439D01*
X97776053Y-38516052D01*
X97669833Y-38645481D01*
X97635257Y-38710168D01*
X97590903Y-38793146D01*
X97542300Y-38953371D01*
X97525889Y-39120000D01*
X95350000Y-39120000D01*
X95350000Y-36852080D01*
X97852081Y-34350000D01*
X124958259Y-34350000D01*
X125000000Y-34354111D01*
X125041741Y-34350000D01*
X125041749Y-34350000D01*
X125166629Y-34337700D01*
X125326855Y-34289097D01*
X125474519Y-34210168D01*
X125603948Y-34103948D01*
X125630566Y-34071514D01*
X129451525Y-30250557D01*
X129483948Y-30223948D01*
X129510557Y-30191525D01*
X129510562Y-30191520D01*
X129590168Y-30094519D01*
X129669097Y-29946855D01*
X129717700Y-29786629D01*
X129730000Y-29661749D01*
X129730000Y-29661741D01*
X129734111Y-29620000D01*
X129730000Y-29578259D01*
X129730000Y-27375814D01*
X129772448Y-27347451D01*
X129967451Y-27152448D01*
X130120664Y-26923149D01*
X130150000Y-26852326D01*
X130179336Y-26923149D01*
X130332549Y-27152448D01*
X130527552Y-27347451D01*
X130756851Y-27500664D01*
X131011635Y-27606199D01*
X131282112Y-27660000D01*
X131557888Y-27660000D01*
X131828365Y-27606199D01*
X132083149Y-27500664D01*
X132312448Y-27347451D01*
X132507451Y-27152448D01*
X132660664Y-26923149D01*
X132692378Y-26846586D01*
X132706005Y-26882506D01*
X132851545Y-27115187D01*
X133039682Y-27315004D01*
X133263187Y-27474278D01*
X133513470Y-27586887D01*
X133594099Y-27611339D01*
X133810000Y-27500967D01*
X133810000Y-26410000D01*
X133790000Y-26410000D01*
X133790000Y-26110000D01*
X133810000Y-26110000D01*
X133810000Y-25019033D01*
X133594099Y-24908661D01*
X133513470Y-24933113D01*
X133263187Y-25045722D01*
X133039682Y-25204996D01*
X132851545Y-25404813D01*
X132706005Y-25637494D01*
X132692378Y-25673414D01*
X132660664Y-25596851D01*
X132507451Y-25367552D01*
X132312448Y-25172549D01*
X132083149Y-25019336D01*
X131828365Y-24913801D01*
X131557888Y-24860000D01*
X131282112Y-24860000D01*
X131011635Y-24913801D01*
X130756851Y-25019336D01*
X130527552Y-25172549D01*
X130332549Y-25367552D01*
X130179336Y-25596851D01*
X130150000Y-25667674D01*
X130120664Y-25596851D01*
X129967451Y-25367552D01*
X129772448Y-25172549D01*
X129543149Y-25019336D01*
X129288365Y-24913801D01*
X129017888Y-24860000D01*
X128742112Y-24860000D01*
X128471635Y-24913801D01*
X128216851Y-25019336D01*
X127987552Y-25172549D01*
X127792549Y-25367552D01*
X127639336Y-25596851D01*
X127610000Y-25667674D01*
X127580664Y-25596851D01*
X127427451Y-25367552D01*
X127232448Y-25172549D01*
X127003149Y-25019336D01*
X126748365Y-24913801D01*
X126477888Y-24860000D01*
X126202112Y-24860000D01*
X125931635Y-24913801D01*
X125676851Y-25019336D01*
X125447552Y-25172549D01*
X125252549Y-25367552D01*
X125099336Y-25596851D01*
X125070000Y-25667674D01*
X125040664Y-25596851D01*
X124887451Y-25367552D01*
X124692448Y-25172549D01*
X124463149Y-25019336D01*
X124208365Y-24913801D01*
X123937888Y-24860000D01*
X123662112Y-24860000D01*
X123391635Y-24913801D01*
X123136851Y-25019336D01*
X122907552Y-25172549D01*
X122712549Y-25367552D01*
X122559336Y-25596851D01*
X122530000Y-25667674D01*
X122500664Y-25596851D01*
X122347451Y-25367552D01*
X122152448Y-25172549D01*
X121923149Y-25019336D01*
X121668365Y-24913801D01*
X121397888Y-24860000D01*
X121122112Y-24860000D01*
X120851635Y-24913801D01*
X120596851Y-25019336D01*
X120367552Y-25172549D01*
X120172549Y-25367552D01*
X120019336Y-25596851D01*
X119990000Y-25667674D01*
X119960664Y-25596851D01*
X119807451Y-25367552D01*
X119612448Y-25172549D01*
X119383149Y-25019336D01*
X119128365Y-24913801D01*
X118857888Y-24860000D01*
X118582112Y-24860000D01*
X118311635Y-24913801D01*
X118056851Y-25019336D01*
X117827552Y-25172549D01*
X117632549Y-25367552D01*
X117479336Y-25596851D01*
X117450000Y-25667674D01*
X117420664Y-25596851D01*
X117267451Y-25367552D01*
X117072448Y-25172549D01*
X116843149Y-25019336D01*
X116588365Y-24913801D01*
X116317888Y-24860000D01*
X116042112Y-24860000D01*
X115771635Y-24913801D01*
X115516851Y-25019336D01*
X115287552Y-25172549D01*
X115092549Y-25367552D01*
X114939336Y-25596851D01*
X114910000Y-25667674D01*
X114880664Y-25596851D01*
X114727451Y-25367552D01*
X114532448Y-25172549D01*
X114303149Y-25019336D01*
X114048365Y-24913801D01*
X113777888Y-24860000D01*
X113502112Y-24860000D01*
X113231635Y-24913801D01*
X112976851Y-25019336D01*
X112747552Y-25172549D01*
X112552549Y-25367552D01*
X112399336Y-25596851D01*
X112370000Y-25667674D01*
X112340664Y-25596851D01*
X112187451Y-25367552D01*
X111992448Y-25172549D01*
X111763149Y-25019336D01*
X111508365Y-24913801D01*
X111237888Y-24860000D01*
X110962112Y-24860000D01*
X110691635Y-24913801D01*
X110436851Y-25019336D01*
X110207552Y-25172549D01*
X110012549Y-25367552D01*
X109859336Y-25596851D01*
X109830000Y-25667674D01*
X109800664Y-25596851D01*
X109647451Y-25367552D01*
X109452448Y-25172549D01*
X109223149Y-25019336D01*
X108968365Y-24913801D01*
X108697888Y-24860000D01*
X108422112Y-24860000D01*
X108151635Y-24913801D01*
X107896851Y-25019336D01*
X107667552Y-25172549D01*
X107472549Y-25367552D01*
X107319336Y-25596851D01*
X107290000Y-25667674D01*
X107260664Y-25596851D01*
X107107451Y-25367552D01*
X106912448Y-25172549D01*
X106683149Y-25019336D01*
X106428365Y-24913801D01*
X106157888Y-24860000D01*
X105882112Y-24860000D01*
X105611635Y-24913801D01*
X105356851Y-25019336D01*
X105127552Y-25172549D01*
X104932549Y-25367552D01*
X104779336Y-25596851D01*
X104750000Y-25667674D01*
X104720664Y-25596851D01*
X104567451Y-25367552D01*
X104372448Y-25172549D01*
X104143149Y-25019336D01*
X103888365Y-24913801D01*
X103617888Y-24860000D01*
X103342112Y-24860000D01*
X103071635Y-24913801D01*
X102816851Y-25019336D01*
X102587552Y-25172549D01*
X102392549Y-25367552D01*
X102239336Y-25596851D01*
X102210000Y-25667674D01*
X102180664Y-25596851D01*
X102027451Y-25367552D01*
X101832448Y-25172549D01*
X101603149Y-25019336D01*
X101348365Y-24913801D01*
X101077888Y-24860000D01*
X100802112Y-24860000D01*
X100531635Y-24913801D01*
X100276851Y-25019336D01*
X100047552Y-25172549D01*
X99852549Y-25367552D01*
X99699336Y-25596851D01*
X99593801Y-25851635D01*
X99540000Y-26122112D01*
X99540000Y-26397888D01*
X99593801Y-26668365D01*
X99699336Y-26923149D01*
X99852549Y-27152448D01*
X100047552Y-27347451D01*
X100276851Y-27500664D01*
X100531635Y-27606199D01*
X100802112Y-27660000D01*
X101077888Y-27660000D01*
X101348365Y-27606199D01*
X101603149Y-27500664D01*
X101832448Y-27347451D01*
X102027451Y-27152448D01*
X102180664Y-26923149D01*
X102210000Y-26852326D01*
X102239336Y-26923149D01*
X102392549Y-27152448D01*
X102587552Y-27347451D01*
X102816851Y-27500664D01*
X103071635Y-27606199D01*
X103342112Y-27660000D01*
X103617888Y-27660000D01*
X103888365Y-27606199D01*
X104143149Y-27500664D01*
X104372448Y-27347451D01*
X104567451Y-27152448D01*
X104720664Y-26923149D01*
X104750000Y-26852326D01*
X104779336Y-26923149D01*
X104932549Y-27152448D01*
X105127552Y-27347451D01*
X105356851Y-27500664D01*
X105611635Y-27606199D01*
X105882112Y-27660000D01*
X106157888Y-27660000D01*
X106428365Y-27606199D01*
X106683149Y-27500664D01*
X106912448Y-27347451D01*
X107107451Y-27152448D01*
X107260664Y-26923149D01*
X107290000Y-26852326D01*
X107319336Y-26923149D01*
X107472549Y-27152448D01*
X107667552Y-27347451D01*
X107896851Y-27500664D01*
X108151635Y-27606199D01*
X108422112Y-27660000D01*
X108697888Y-27660000D01*
X108968365Y-27606199D01*
X109223149Y-27500664D01*
X109452448Y-27347451D01*
X109647451Y-27152448D01*
X109800664Y-26923149D01*
X109830000Y-26852326D01*
X109859336Y-26923149D01*
X110012549Y-27152448D01*
X110207552Y-27347451D01*
X110436851Y-27500664D01*
X110691635Y-27606199D01*
X110962112Y-27660000D01*
X111237888Y-27660000D01*
X111508365Y-27606199D01*
X111763149Y-27500664D01*
X111992448Y-27347451D01*
X112187451Y-27152448D01*
X112340664Y-26923149D01*
X112370000Y-26852326D01*
X112399336Y-26923149D01*
X112552549Y-27152448D01*
X112747552Y-27347451D01*
X112976851Y-27500664D01*
X113231635Y-27606199D01*
X113502112Y-27660000D01*
X113777888Y-27660000D01*
X114048365Y-27606199D01*
X114303149Y-27500664D01*
X114532448Y-27347451D01*
X114727451Y-27152448D01*
X114880664Y-26923149D01*
X114910000Y-26852326D01*
X114939336Y-26923149D01*
X115092549Y-27152448D01*
X115287552Y-27347451D01*
X115516851Y-27500664D01*
X115771635Y-27606199D01*
X116042112Y-27660000D01*
X116317888Y-27660000D01*
X116588365Y-27606199D01*
X116843149Y-27500664D01*
X117072448Y-27347451D01*
X117267451Y-27152448D01*
X117420664Y-26923149D01*
X117450000Y-26852326D01*
X117479336Y-26923149D01*
X117632549Y-27152448D01*
X117827552Y-27347451D01*
X118056851Y-27500664D01*
X118311635Y-27606199D01*
X118582112Y-27660000D01*
X118857888Y-27660000D01*
X119128365Y-27606199D01*
X119383149Y-27500664D01*
X119612448Y-27347451D01*
X119807451Y-27152448D01*
X119960664Y-26923149D01*
X119990000Y-26852326D01*
X120019336Y-26923149D01*
X120172549Y-27152448D01*
X120367552Y-27347451D01*
X120596851Y-27500664D01*
X120851635Y-27606199D01*
X121122112Y-27660000D01*
X121397888Y-27660000D01*
X121668365Y-27606199D01*
X121923149Y-27500664D01*
X122152448Y-27347451D01*
X122347451Y-27152448D01*
X122500664Y-26923149D01*
X122530000Y-26852326D01*
X122559336Y-26923149D01*
X122712549Y-27152448D01*
X122907552Y-27347451D01*
X123136851Y-27500664D01*
X123391635Y-27606199D01*
X123662112Y-27660000D01*
X123937888Y-27660000D01*
X124208365Y-27606199D01*
X124463149Y-27500664D01*
X124692448Y-27347451D01*
X124887451Y-27152448D01*
X125040664Y-26923149D01*
X125070000Y-26852326D01*
X125099336Y-26923149D01*
X125252549Y-27152448D01*
X125447552Y-27347451D01*
X125676851Y-27500664D01*
X125931635Y-27606199D01*
X126202112Y-27660000D01*
X126477888Y-27660000D01*
X126748365Y-27606199D01*
X127003149Y-27500664D01*
X127232448Y-27347451D01*
X127427451Y-27152448D01*
X127580664Y-26923149D01*
X127610000Y-26852326D01*
X127639336Y-26923149D01*
X127792549Y-27152448D01*
X127987552Y-27347451D01*
X128030000Y-27375814D01*
X128030001Y-29267917D01*
X124647920Y-32650000D01*
X97541741Y-32650000D01*
X97500000Y-32645889D01*
X97458259Y-32650000D01*
X97458251Y-32650000D01*
X97333371Y-32662300D01*
X97173145Y-32710903D01*
X97025481Y-32789832D01*
X96896052Y-32896052D01*
X96869439Y-32928480D01*
X93928486Y-35869434D01*
X93896052Y-35896052D01*
X93789832Y-36025482D01*
X93710903Y-36173146D01*
X93662300Y-36333372D01*
X93650000Y-36458252D01*
X93650000Y-36458259D01*
X93645889Y-36500000D01*
X93650000Y-36541741D01*
X93650001Y-79458249D01*
X93645889Y-79500000D01*
X93662300Y-79666629D01*
X93710903Y-79826854D01*
X93747644Y-79895589D01*
X93789833Y-79974519D01*
X93896053Y-80103948D01*
X93928481Y-80130561D01*
X95869439Y-82071519D01*
X95896052Y-82103948D01*
X96025481Y-82210168D01*
X96173145Y-82289097D01*
X96333370Y-82337700D01*
X96349013Y-82339241D01*
X96458251Y-82350000D01*
X91650000Y-82350000D01*
X91650000Y-22240745D01*
X92367736Y-22240745D01*
X92367736Y-22759255D01*
X92468893Y-23267803D01*
X92667318Y-23746844D01*
X92955387Y-24177970D01*
X93322030Y-24544613D01*
X93753156Y-24832682D01*
X94232197Y-25031107D01*
X94740745Y-25132264D01*
X95259255Y-25132264D01*
X95767803Y-25031107D01*
X96246844Y-24832682D01*
X96677970Y-24544613D01*
X97044613Y-24177970D01*
X97332682Y-23746844D01*
X97531107Y-23267803D01*
X97632264Y-22759255D01*
X97632264Y-22240745D01*
X97531107Y-21732197D01*
X97332682Y-21253156D01*
X97044613Y-20822030D01*
X96677970Y-20455387D01*
X96246844Y-20167318D01*
X95767803Y-19968893D01*
X95259255Y-19867736D01*
X94740745Y-19867736D01*
X94232197Y-19968893D01*
X93753156Y-20167318D01*
X93322030Y-20455387D01*
X92955387Y-20822030D01*
X92667318Y-21253156D01*
X92468893Y-21732197D01*
X92367736Y-22240745D01*
X91650000Y-22240745D01*
X91650000Y-19150000D01*
X142850000Y-19150000D01*
X142850001Y-82350000D01*
G37*
%TD.AperFunction*%
%TD*%
M02*
