%TF.GenerationSoftware,KiCad,Pcbnew,(5.1.9)-1*%
%TF.CreationDate,2021-04-19T12:28:07+03:00*%
%TF.ProjectId,RGB-IR-ControllerPCB,5247422d-4952-42d4-936f-6e74726f6c6c,rev?*%
%TF.SameCoordinates,Original*%
%TF.FileFunction,Plated,1,2,PTH,Drill*%
%TF.FilePolarity,Positive*%
%FSLAX46Y46*%
G04 Gerber Fmt 4.6, Leading zero omitted, Abs format (unit mm)*
G04 Created by KiCad (PCBNEW (5.1.9)-1) date 2021-04-19 12:28:07*
%MOMM*%
%LPD*%
G01*
G04 APERTURE LIST*
%TA.AperFunction,ComponentDrill*%
%ADD10C,0.700000*%
%TD*%
%TA.AperFunction,ComponentDrill*%
%ADD11C,0.800000*%
%TD*%
%TA.AperFunction,ComponentDrill*%
%ADD12C,1.000000*%
%TD*%
%TA.AperFunction,ComponentDrill*%
%ADD13C,1.100000*%
%TD*%
%TA.AperFunction,ComponentDrill*%
%ADD14C,1.320000*%
%TD*%
G04 APERTURE END LIST*
D10*
%TO.C,U1*%
X98880000Y-78500000D03*
X103960000Y-78500000D03*
X106500000Y-78500000D03*
D11*
%TO.C,R2*%
X117000000Y-47500000D03*
X117000000Y-57660000D03*
%TO.C,R1*%
X121500000Y-47500000D03*
X121500000Y-57660000D03*
%TO.C,R4*%
X125500000Y-47500000D03*
X125500000Y-57660000D03*
%TO.C,R3*%
X130000000Y-47500000D03*
X130000000Y-57660000D03*
%TO.C,R6*%
X134000000Y-47500000D03*
X134000000Y-57660000D03*
%TO.C,R5*%
X138500000Y-47500000D03*
X138500000Y-57660000D03*
D12*
%TO.C,A1*%
X100690000Y-21760000D03*
X100690000Y-37000000D03*
X103230000Y-21760000D03*
X103230000Y-37000000D03*
X105770000Y-21760000D03*
X105770000Y-37000000D03*
X108310000Y-21760000D03*
X108310000Y-37000000D03*
X110850000Y-21760000D03*
X110850000Y-37000000D03*
X113390000Y-21760000D03*
X113390000Y-37000000D03*
X115930000Y-21760000D03*
X115930000Y-37000000D03*
X118470000Y-21760000D03*
X118470000Y-37000000D03*
X121010000Y-21760000D03*
X121010000Y-37000000D03*
X123550000Y-21760000D03*
X123550000Y-37000000D03*
X126090000Y-21760000D03*
X126090000Y-37000000D03*
X128630000Y-21760000D03*
X128630000Y-37000000D03*
X131170000Y-21760000D03*
X131170000Y-37000000D03*
X133710000Y-21760000D03*
X133710000Y-37000000D03*
X136250000Y-21760000D03*
X136250000Y-37000000D03*
D13*
%TO.C,U2*%
X99000000Y-63750000D03*
X101540000Y-63750000D03*
X104080000Y-63750000D03*
D14*
%TO.C,J1*%
X99000000Y-52750000D03*
X99000000Y-57750000D03*
%TO.C,J2*%
X121750000Y-79500000D03*
X126750000Y-79500000D03*
X131750000Y-79500000D03*
X136750000Y-79500000D03*
M02*
